<svg xmlns="http://www.w3.org/2000/svg" width="24" height="24" viewBox="0 0 24 24">
  <g fill="#e4701e" fill-rule="evenodd">
    <path d="M8 20C8 21.657 8.716 23 9.6 23L14.4 23C15.284 23 16 21.657 16 20L8 20zM13.5070002 11.4141L10.5070002 8.4141 8.21400019 10.7071 6.80000019 9.2931 10.5070002 5.5861 13.5070002 8.5861 15.8000002 6.2931 17.2140002 7.7071 13.5070002 11.4141zM11.086036 1.0521C7.47103601 1.4551 4.51103601 4.3811 4.06903601 7.9911 3.77103601 10.4201 4.56603601 12.6631 6.02403601 14.3051 6.62703601 14.9831 8.00703601 15.8291 8.00703601 16.7361L8.00703601 17.0001 8.00703601 18.0001 16.007036 18.0001 16.007036 17.0001 16.007036 16.7331C16.007036 15.8311 17.381036 14.9881 17.981036 14.3141 19.241036 12.9021 20.007036 11.0411 20.007036 9.0001 20.007036 4.2781 15.916036.5121 11.086036 1.0521L11.086036 1.0521z"/>
  </g>
</svg>
