<svg xmlns="http://www.w3.org/2000/svg" width="24" height="24" viewBox="0 0 24 24">
  <path fill="#e4701e" d="M21,15 L21,16 C21,16.552 21.448,17 22,17 L23,17 L23,7 L22,7 C21.448,7 21,7.448 21,8 L21,9 L19.413,9 C18.226,6.069 15.357,4 12,4 C8.643,4 5.774,6.069 4.587,9 L3,9 L3,8 C3,7.448 2.552,7 2,7 L1,7 L1,17 L2,17 C2.552,17 3,16.552 3,16 L3,15 L4.587,15 C5.774,17.931 8.643,20 12,20 C15.357,20 18.226,17.931 19.413,15 L21,15 Z M12,18 C8.692,18 6,15.308 6,12 C6,8.692 8.692,6 12,6 C15.308,6 18,8.692 18,12 C18,15.308 15.308,18 12,18 Z M11.6982,9.6013 C11.2902,10.0093 10.7482,10.2333 10.1722,10.2333 C9.5952,10.2333 9.0532,10.0093 8.6452,9.6013 L7.7892,10.4573 C8.4252,11.0943 9.2722,11.4443 10.1722,11.4443 C11.0722,11.4443 11.9182,11.0943 12.5542,10.4573 C12.9622,10.0493 13.5042,9.8253 14.0812,9.8253 C14.6572,9.8253 15.1992,10.0493 15.6072,10.4573 L16.4632,9.6013 C15.1492,8.2873 13.0122,8.2873 11.6982,9.6013 Z M11.6982,13.541 C11.2902,13.949 10.7482,14.173 10.1722,14.173 C9.5952,14.173 9.0532,13.949 8.6452,13.541 L7.7892,14.397 C8.4252,15.034 9.2722,15.384 10.1722,15.384 C11.0722,15.384 11.9182,15.034 12.5542,14.397 C12.9622,13.989 13.5042,13.765 14.0812,13.765 C14.6572,13.765 15.1992,13.989 15.6072,14.397 L16.4632,13.541 C15.1492,12.227 13.0122,12.227 11.6982,13.541 Z"/>
</svg>
