<svg xmlns="http://www.w3.org/2000/svg" width="24" height="24" viewBox="0 0 24 24">
  <path fill="#e4701e" d="M13,16.6584258 C13.5978014,16.3117795 14,15.6638715 14,14.9217976 C14,13.814555 13.1045695,12.9169575 12,12.9169575 C10.8954305,12.9169575 10,13.814555 10,14.9217976 C10,15.6638715 10.4021986,16.3117795 11,16.6584258 L11,20 L13,20 L13,16.6584258 Z M18.003,9.96853946 C19.102,9.96853946 20,10.8717199 20,11.9733795 L20,20.9951599 C20,22.097822 19.1,23 18,23 L6.002,23 C4.902,23 4,22.097822 4,20.9951599 L4,11.9733795 C4,10.8707175 4.902,9.96853946 6.002,9.96853946 L7,9.96853946 L7,5.97489802 C7,3.04983634 9.574,0.706178282 12.551,1.02995996 C15.129,1.31063757 17,3.64928352 17,6.24956111 L17,9.96853946 L18.003,9.96853946 Z M15,9.96853946 L15,5.97489802 C15,4.45121956 13.52,2.95159917 12,2.95159917 C10.48,2.95159917 9,4.45121956 9,5.97489802 L9,9.96853946 L15,9.96853946 Z"/>
</svg>
