<svg xmlns="http://www.w3.org/2000/svg" width="24" height="24" viewBox="0 0 24 24">
  <g fill="#e4701e">
    <path d="M11,9 L9,9 L9,4.167 C9,3.615 9.448,3.167 10,3.167 C10.552,3.167 11,3.615 11,4.167 L11,9 L11,9 Z M13,14.023 L13,4.167 C13,2.512 11.654,1.167 10,1.167 C8.346,1.167 7,2.512 7,4.167 L7,14.023 C5.792,14.935 5,16.37 5,18 C5,20.761 7.239,23 10,23 C12.761,23 15,20.761 15,18 C15,16.37 14.208,14.935 13,14.023 L13,14.023 Z"/>
    <polygon points="15 6 20 6 20 4 15 4"/>
    <polygon points="15 9 20 9 20 7 15 7"/>
    <polygon points="15 12 20 12 20 10 15 10"/>
  </g>
</svg>
