<svg xmlns="http://www.w3.org/2000/svg" width="24" height="24" viewBox="0 0 24 24">
  <path fill="#e4701e" d="M7,11 L7,3 L17,3 L17,11 L7,11 Z M16,19 C15.448,19 15,18.552 15,18 C15,17.448 15.448,17 16,17 C16.552,17 17,17.448 17,18 C17,18.552 16.552,19 16,19 L16,19 Z M14,14 C14,13.448 14.448,13 15,13 C15.552,13 16,13.448 16,14 C16,14.552 15.552,15 15,15 C14.448,15 14,14.552 14,14 L14,14 Z M12,19 C10.895,19 10,18.105 10,17 C10,15.895 10.895,15 12,15 C13.105,15 14,15.895 14,17 C14,18.105 13.105,19 12,19 L12,19 Z M12,22 C11.448,22 11,21.552 11,21 C11,20.448 11.448,20 12,20 C12.552,20 13,20.448 13,21 C13,21.552 12.552,22 12,22 L12,22 Z M9,15 C8.448,15 8,14.552 8,14 C8,13.448 8.448,13 9,13 C9.552,13 10,13.448 10,14 C10,14.552 9.552,15 9,15 L9,15 Z M8,19 C7.448,19 7,18.552 7,18 C7,17.448 7.448,17 8,17 C8.552,17 9,17.448 9,18 C9,18.552 8.552,19 8,19 L8,19 Z M17,1 L7,1 C5.895,1 5,1.895 5,3 L5,21 C5,22.105 5.895,23 7,23 L17,23 C18.105,23 19,22.105 19,21 L19,3 C19,1.895 18.105,1 17,1 L17,1 Z"/>
</svg>
