<svg xmlns="http://www.w3.org/2000/svg" width="24" height="24" viewBox="0 0 24 24">
  <path fill="#e4701e" d="M11.3839,15.0232 L9.9699,13.6092 L6.9999,10.6392 L8.4139,9.2252 L11.3839,12.1952 L16.5859,6.9932 L17.9999,8.4072 L11.3839,15.0232 Z M20.4419,3.8362 C20.4419,3.8362 16.4109,2.7612 11.9899,1.0002 C7.5689,2.7612 3.5649,3.8362 3.5649,3.8362 C3.1999,3.9392 2.9999,4.2502 2.9999,4.6132 L2.9999,10.7272 C2.9999,18.1882 11.9999,22.5512 11.9999,22.5512 C11.9999,22.5512 20.9999,18.1882 20.9999,10.7272 L20.9999,4.6132 C20.9999,4.2502 20.8059,3.9392 20.4419,3.8362 L20.4419,3.8362 Z"/>
</svg>
