<?xml version="1.0" encoding="utf-8"?>
<!-- Generator: Adobe Illustrator 21.0.0, SVG Export Plug-In . SVG Version: 6.00 Build 0)  -->
<!DOCTYPE svg PUBLIC "-//W3C//DTD SVG 1.1//EN" "http://www.w3.org/Graphics/SVG/1.1/DTD/svg11.dtd">
<svg version="1.1" id="Layer_1" xmlns="http://www.w3.org/2000/svg" xmlns:xlink="http://www.w3.org/1999/xlink" x="0px" y="0px"
	 viewBox="0 0 24 24" enable-background="new 0 0 24 24" xml:space="preserve">
<path fill="#e4701e" d="M5.4,14.5c-1.3-1.3-1.3-3.3,0-4.6c1.8-1.8,2-4.5,0.7-6.5C5.8,2.9,5.1,2.9,4.6,3.3l0,0C4.3,3.7,4.3,4.2,4.5,4.6
	C5.2,5.8,5.1,7.5,4,8.5c-2,2-2,5.4,0,7.4c1.1,1.1,1.2,2.7,0.5,3.9c-0.2,0.4-0.2,0.9,0.1,1.3l0,0c0.4,0.4,1.2,0.4,1.5-0.1
	C7.4,19,7.2,16.3,5.4,14.5z M12.4,14.5c-1.3-1.3-1.3-3.3,0-4.6c1.8-1.8,2-4.5,0.7-6.5c-0.3-0.5-1.1-0.6-1.5-0.1l0,0
	c-0.3,0.3-0.4,0.8-0.1,1.3c0.7,1.2,0.6,2.9-0.5,3.9c-2,2-2,5.4,0,7.4c1.1,1.1,1.2,2.7,0.5,3.9c-0.2,0.4-0.2,0.9,0.1,1.3h0
	c0.4,0.4,1.2,0.4,1.5-0.1C14.4,19,14.2,16.3,12.4,14.5z M18,8.5c-2,2-2,5.4,0,7.4c1.1,1.1,1.2,2.7,0.5,3.9c-0.2,0.4-0.2,0.9,0.1,1.3
	l0,0c0.4,0.4,1.2,0.4,1.5-0.1c1.3-2,1-4.7-0.7-6.5c-1.3-1.3-1.3-3.3,0-4.6c1.8-1.8,2-4.5,0.7-6.5c-0.3-0.5-1.1-0.6-1.5-0.1l0,0
	c-0.3,0.3-0.4,0.8-0.1,1.3C19.2,5.8,19.1,7.5,18,8.5z"/>
</svg>
