<svg xmlns="http://www.w3.org/2000/svg" width="24" height="24" viewBox="0 0 24 24">
  <path fill="#e4701e" fill-rule="evenodd" d="M9,14.023 L9,4 C9,2.343 7.657,1 6,1 C4.343,1 3,2.343 3,4 L3,14.023 C1.792,14.935 1,16.37 1,18 C1,20.761 3.239,23 6,23 C8.761,23 11,20.761 11,18 C11,16.37 10.208,14.935 9,14.023 Z M7,9 L5,9 L5,3 L7,3 L7,9 Z M11,3 L11,5 L19,5 C20.103,5 21,5.897 21,7 L16,7 L16,9 L21,9 L21,10 L16,10 L16,12 L21,12 L21,17 C21,18.103 20.103,19 19,19 L13,19 L13,21 L19,21 C21.209,21 23,19.209 23,17 L23,7 C23,4.791 21.209,3 19,3 L11,3 Z"/>
</svg>
