<?xml version="1.0" encoding="utf-8"?>
<!-- Generator: Adobe Illustrator 21.0.0, SVG Export Plug-In . SVG Version: 6.00 Build 0)  -->
<!DOCTYPE svg PUBLIC "-//W3C//DTD SVG 1.1//EN" "http://www.w3.org/Graphics/SVG/1.1/DTD/svg11.dtd">
<svg version="1.1" id="Layer_1" xmlns="http://www.w3.org/2000/svg" xmlns:xlink="http://www.w3.org/1999/xlink" x="0px" y="0px"
	 viewBox="0 0 660 607" enable-background="new 0 0 660 607" xml:space="preserve">
<g>
	<g>
		<g>
			<g>
				<path fill="none" stroke="#999999" stroke-width="1.0003" stroke-miterlimit="10" d="M634.5,148.6c-0.4-0.5-0.8-1.8,0.7-4.4
					c1.9-3.2,7.7-8,8.8-8.9"/>
				<g>
					<polygon fill="#FFFFFF" points="642.4,148.2 644.6,144.6 644.6,144.6 644.8,144.1 645.4,144.4 647.4,141 647.9,141.3 
						645.8,144.8 646.6,145.3 647,147.3 645.6,149.6 					"/>
					<path fill="#999999" d="M645,144.8l0.2,0.1l-0.1,0.1l0.9,0.5l0.2,0.1l0.3,1.6l-1.1,1.8l-2.3-1l1.4-2.4L645,144.8 M647.2,140.3
						l-2,3.4l-0.5-0.3l-1,1.7l0,0l-2,3.4l4.1,1.8l1.7-2.9L647,145l-0.5-0.3l2.1-3.5L647.2,140.3L647.2,140.3z"/>
				</g>
			</g>
			<g>
				
					<ellipse transform="matrix(0.4237 -0.9058 0.9058 0.4237 233.3633 684.9731)" fill="#999999" cx="655" cy="159.1" rx="5.2" ry="2.8"/>
			</g>
		</g>
		<g>
			<path fill="#FFFFFF" d="M635.2,153.5c-0.2-0.3-0.8-1.2-0.6-2.5v-0.2l-0.2-0.2c-0.3-0.4-0.5-0.9-0.3-1.3l0.8-0.9
				c0.2-0.1,0.4-0.1,0.6-0.1c0.1,0,0.1,0,0.2,0h0.2l0.2-0.2c1-1,2-1.1,2.3-1.1l17.2,7.5c-0.8,0.5-1.8,1.4-2.9,3.3
				c-1.2,2.1-1.2,3.9-0.9,5.1L635.2,153.5z"/>
			<path fill="#999999" d="M638.4,147.4l3.7,1.6l4.1,1.8l8.4,3.7c-0.7,0.6-1.5,1.5-2.3,2.9c-1,1.7-1.2,3.2-1.1,4.4l-15.7-8.7
				c-0.2-0.3-0.6-1.1-0.4-2.1l0.1-0.5l-0.3-0.3c-0.2-0.2-0.3-0.5-0.2-0.8l0.6-0.7c0.1,0,0.2,0,0.3,0h0.1l0.5,0.1l0.4-0.4
				C637.3,147.5,638.1,147.4,638.4,147.4 M638.5,146.4c-0.4,0-1.5,0.1-2.7,1.3c-0.1,0-0.2,0-0.3,0c-0.3,0-0.6,0.1-0.9,0.2l-1,1.1
				c-0.2,0.7-0.1,1.4,0.4,1.9c-0.2,1.8,0.7,3,0.7,3l17.9,9.9c0,0-1.4-2.7,0.5-5.9s3.3-3.5,3.8-3.5c0.1,0,0.1,0,0.1,0l-10.5-4.5
				l-4.1-1.8L638.5,146.4C638.6,146.4,638.6,146.4,638.5,146.4L638.5,146.4z"/>
		</g>
	</g>
	<g>
		<g>
			<g>
				<polygon fill="#FFFFFF" stroke="#999999" stroke-width="2.0007" stroke-miterlimit="10" points="20.2,452.2 630.7,452.2 
					630.8,297.2 20.2,297.2 				"/>
				<g>
					<polygon fill="#FFFFFF" points="20.2,452.2 630.7,452.2 630.8,607 20.2,607 					"/>
					<path fill="#999999" d="M629.8,607l-0.1-153.8H21.2V607h-2V451.2h612.5v1l0.1,154.8H629.8z"/>
				</g>
				<polygon fill="#FFFFFF" stroke="#999999" stroke-width="2.0007" stroke-miterlimit="10" points="20.2,141 630.7,141 
					630.8,297.2 20.2,297.2 				"/>
			</g>
			<g>
				<polygon fill="#FFFFFF" points="648,141.1 3,141.1 53.6,1 597.4,1 				"/>
				<path fill="#999999" d="M649.4,142.1H1.6L52.9,0h545.2l0.2,0.7L649.4,142.1z M4.4,140.1h642.1L596.7,2H54.3L4.4,140.1z"/>
			</g>
		</g>
		<line fill="none" stroke="#999999" stroke-width="2.0007" stroke-miterlimit="10" x1="489.1" y1="297.6" x2="489.1" y2="451.9"/>
		<line fill="none" stroke="#999999" stroke-width="2.0007" stroke-miterlimit="10" x1="357.7" y1="453.2" x2="357.7" y2="607"/>
		<line fill="none" stroke="#999999" stroke-width="2.0007" stroke-miterlimit="10" x1="318.2" y1="141.7" x2="318.2" y2="297.2"/>
	</g>
	<g>
		<path fill="#999999" d="M622.7,467.4H489c-0.2,0-0.4,0.2-0.4,0.4l0,0c0,0.2,0.2,0.4,0.4,0.4h133.6c0.2,0,0.4-0.2,0.4-0.4l0,0
			C623.1,467.6,622.9,467.4,622.7,467.4L622.7,467.4z"/>
		<g>
			<path fill="#999999" d="M501.4,467.7v-15c0-0.2-0.2-0.4-0.4-0.4l0,0c-0.2,0-0.4,0.2-0.4,0.4v15c0,0.2,0.2,0.4,0.4,0.4l0,0
				C501.2,468.2,501.4,468,501.4,467.7L501.4,467.7z"/>
			<path fill="#999999" d="M604.5,467.7v-15c0-0.2-0.2-0.4-0.4-0.4l0,0c-0.2,0-0.4,0.2-0.4,0.4v15c0,0.2,0.2,0.4,0.4,0.4l0,0
				C604.3,468.2,604.5,468,604.5,467.7L604.5,467.7z"/>
			<path fill="#999999" d="M553,467.7v-15c0-0.2-0.2-0.4-0.4-0.4l0,0c-0.2,0-0.4,0.2-0.4,0.4v15c0,0.2,0.2,0.4,0.4,0.4l0,0
				C552.8,468.2,553,468,553,467.7L553,467.7z"/>
		</g>
	</g>
	<g>
		<path fill="#FFFFFF" stroke="#999999" stroke-width="1.0003" d="M98.2,513.1h-24c-2.1,0-3.8-1.7-3.8-3.8v-14.8
			c0-2.1,1.7-3.8,3.8-3.8h24.1c2.1,0,3.8,1.7,3.8,3.8v14.8C102,511.4,100.3,513.1,98.2,513.1z"/>
		<path fill="#FFFFFF" stroke="#999999" stroke-width="1.0003" d="M97.6,508.9H85.2c-0.6,0-1.1-0.5-1.1-1.1v-11.6
			c0-0.6,0.5-1.1,1.1-1.1h12.3c0.6,0,1.1,0.5,1.1,1.1v11.6C98.7,508.3,98.2,508.9,97.6,508.9z"/>
		<g>
			
				<ellipse transform="matrix(1.531472e-02 -0.9999 0.9999 1.531472e-02 -429.6693 569.8247)" fill="#999999" cx="74.5" cy="503.1" rx="0.7" ry="0.7"/>
			
				<ellipse transform="matrix(1.530251e-02 -0.9999 0.9999 1.530251e-02 -427.5422 567.5073)" fill="#999999" cx="74.4" cy="500.8" rx="0.7" ry="0.7"/>
			
				<ellipse transform="matrix(1.588086e-02 -0.9999 0.9999 1.588086e-02 -427.6747 571.8442)" fill="#999999" cx="76.7" cy="503.2" rx="0.7" ry="0.7"/>
			
				<ellipse transform="matrix(1.589118e-02 -0.9999 0.9999 1.589118e-02 -425.3576 569.5104)" fill="#999999" cx="76.6" cy="500.8" rx="0.7" ry="0.7"/>
			
				<ellipse transform="matrix(1.555251e-02 -0.9999 0.9999 1.555251e-02 -425.3586 574.1153)" fill="#999999" cx="78.9" cy="503.1" rx="0.7" ry="0.7"/>
			
				<ellipse transform="matrix(1.531472e-02 -0.9999 0.9999 1.531472e-02 -423.1163 572.1889)" fill="#999999" cx="79" cy="500.9" rx="0.7" ry="0.7"/>
			
				<ellipse transform="matrix(1.492085e-02 -0.9999 0.9999 1.492085e-02 -429.8493 574.5206)" fill="#999999" cx="76.7" cy="505.4" rx="0.7" ry="0.7"/>
			
				<ellipse transform="matrix(1.523742e-02 -0.9999 0.9999 1.523742e-02 -423.0471 567.6422)" fill="#999999" cx="76.7" cy="498.6" rx="0.7" ry="0.7"/>
			
				<ellipse transform="matrix(1.558623e-02 -0.9999 0.9999 1.558623e-02 -427.5083 576.4091)" fill="#999999" cx="79" cy="505.3" rx="0.7" ry="0.7"/>
			
				<ellipse transform="matrix(1.562086e-02 -0.9999 0.9999 1.562086e-02 -420.7793 569.7625)" fill="#999999" cx="79" cy="498.6" rx="0.7" ry="0.7"/>
			
				<ellipse transform="matrix(1.523967e-02 -0.9999 0.9999 1.523967e-02 -422.951 576.6768)" fill="#999999" cx="81.3" cy="503.1" rx="0.7" ry="0.7"/>
			<path fill="#999999" d="M81.2,501.4L81.2,501.4c-0.4,0-0.7-0.3-0.7-0.7s0.3-0.7,0.7-0.7s0.7,0.3,0.7,0.7
				C81.9,501.1,81.6,501.4,81.2,501.4z"/>
		</g>
	</g>
	<g>
		<rect x="56.8" y="554.9" fill="#FFFFFF" stroke="#999999" stroke-width="1.0003" width="56.3" height="45.3"/>
		<g>
			<rect x="56.8" y="557.9" fill="#999999" width="56.3" height="1"/>
		</g>
		<g>
			<rect x="56.8" y="571.1" fill="#999999" width="56.3" height="1"/>
		</g>
		<g>
			<rect x="56.8" y="584.4" fill="#999999" width="56.3" height="1"/>
		</g>
		<rect x="60.1" y="600.3" fill="#999999" width="5.6" height="6.7"/>
		<rect x="104.3" y="600.3" fill="#999999" width="5.6" height="6.7"/>
		<g>
			<path fill="#FFFFFF" stroke="#999999" stroke-width="1.0003" d="M75.2,566.3c-0.9,0-1.6-0.7-1.6-1.6s0.7-1.6,1.6-1.6
				s1.6,0.7,1.6,1.6C76.8,565.6,76.1,566.3,75.2,566.3z"/>
		</g>
		<g>
			<path fill="#FFFFFF" stroke="#999999" stroke-width="1.0003" d="M75.2,579.4c-0.9,0-1.6-0.7-1.6-1.6s0.7-1.6,1.6-1.6
				s1.6,0.7,1.6,1.6C76.8,578.7,76.1,579.4,75.2,579.4z"/>
		</g>
		<g>
			<path fill="#FFFFFF" stroke="#999999" stroke-width="1.0003" d="M75.2,593.9c-0.9,0-1.6-0.7-1.6-1.6s0.7-1.6,1.6-1.6
				s1.6,0.7,1.6,1.6C76.8,593.2,76.1,593.9,75.2,593.9z"/>
		</g>
		<g>
			<path fill="#FFFFFF" stroke="#999999" stroke-width="1.0003" d="M94.7,566.3c-0.9,0-1.6-0.7-1.6-1.6s0.7-1.6,1.6-1.6
				s1.6,0.7,1.6,1.6C96.3,565.6,95.6,566.3,94.7,566.3z"/>
		</g>
		<g>
			<path fill="#FFFFFF" stroke="#999999" stroke-width="1.0003" d="M94.7,579.4c-0.9,0-1.6-0.7-1.6-1.6s0.7-1.6,1.6-1.6
				s1.6,0.7,1.6,1.6C96.3,578.7,95.6,579.4,94.7,579.4z"/>
		</g>
		<g>
			<path fill="#FFFFFF" stroke="#999999" stroke-width="1.0003" d="M94.7,593.9c-0.9,0-1.6-0.7-1.6-1.6s0.7-1.6,1.6-1.6
				s1.6,0.7,1.6,1.6C96.3,593.2,95.6,593.9,94.7,593.9z"/>
		</g>
	</g>
	<g>
		<g>
			<polygon fill="#999999" points="92.5,70.2 90.8,70.2 90.8,97.8 92.5,97.8 			"/>
			<path fill="#FFFFFF" stroke="#999999" stroke-width="1.0003" d="M87,59.3c2.8,0,7.1,0,9.9,0c0.5,9.2,2.1,17.8,8.3,25.6
				c-9,0-17.9,0-26.9,0C84.4,77.2,86.5,68.5,87,59.3L87,59.3z"/>
			<path fill="#999999" d="M85.5,98.7c0,0.3,0,0.5,0,0.8c4.1,0,8.2,0,12.4,0c0-0.2,0-0.5,0-0.7C97.9,96.7,85.5,96.8,85.5,98.7
				L85.5,98.7z"/>
		</g>
		<g>
			<rect x="75.4" y="99.3" fill="#FFFFFF" stroke="#999999" stroke-width="1.0003" width="32.1" height="34.2"/>
			<g>
				<rect x="75.4" y="109" fill="#999999" width="32.1" height="0.8"/>
			</g>
			<rect x="106.5" y="98.5" fill="#FFFFFF" stroke="#999999" stroke-width="1.0003" width="4" height="42"/>
			<rect x="72.3" y="98.5" fill="#FFFFFF" stroke="#999999" stroke-width="1.0003" width="4" height="42"/>
			<g>
				<rect x="89.7" y="101.2" fill="#999999" width="3.4" height="0.8"/>
			</g>
			<g>
				<rect x="89.7" y="114.2" fill="#999999" width="3.4" height="0.8"/>
			</g>
		</g>
	</g>
	<g>
		<g>
			<g>
				<g>
					<path fill="#FFFFFF" d="M151.5,101.6V64c9.5-5.4,31.4-8.8,57.4-8.8c26.1,0,48.1,3.4,57.8,8.8v37.6H151.5z"/>
					<path fill="#999999" d="M208.9,55.8c25.7,0,47.6,3.3,57.3,8.6v36.8H152V64.3C161.6,59,183.3,55.8,208.9,55.8 M208.9,54.8
						c-23.9,0-47.7,3-57.9,9c0,9.1,0,38.4,0,38.4h116.3c0,0,0-26.6,0-38.4C256.8,57.8,232.8,54.8,208.9,54.8L208.9,54.8z"/>
				</g>
			</g>
			<g>
				<path fill="#FFFFFF" stroke="#999999" stroke-width="1.0003" d="M212.2,96.5c-0.9,0-1.7-0.8-1.5-1.8c0.3-2.2,0.8-6.2,0.8-11.3
					c0-4.4-0.4-7.8-0.7-9.9c-0.2-1,0.7-1.9,1.7-1.8c3.8,0.5,12.1,1.3,20,1.3c7.9,0,16.2-0.9,20-1.3c1-0.1,1.8,0.8,1.7,1.8
					c-0.3,2-0.7,5.5-0.7,9.9c0,5.1,0.5,9.2,0.8,11.3c0.1,0.9-0.6,1.8-1.5,1.8"/>
				<path fill="#FFFFFF" stroke="#999999" stroke-width="1.0003" d="M167.5,96.5c-0.9,0-1.7-0.8-1.5-1.8c0.3-2.2,0.8-6.2,0.8-11.3
					c0-4.4-0.4-7.8-0.7-9.9c-0.2-1,0.7-1.9,1.7-1.8c3.8,0.5,12.1,1.3,20,1.3s16.2-0.9,20-1.3c1-0.1,1.8,0.8,1.7,1.8
					c-0.3,2-0.7,5.5-0.7,9.9c0,5.1,0.5,9.2,0.8,11.3c0.1,0.9-0.6,1.8-1.5,1.8"/>
			</g>
			<g>
				<rect x="258.4" y="132.8" fill="#FFFFFF" stroke="#999999" stroke-width="1.0003" width="12" height="7.8"/>
				<rect x="147.9" y="133.9" fill="#FFFFFF" stroke="#999999" stroke-width="1.0003" width="12" height="6.6"/>
			</g>
		</g>
		<path fill="#FFFFFF" stroke="#999999" stroke-width="1.0003" d="M132.7,110.7c0-7.7,6.2-13.9,13.9-13.9h125.1
			c7.7,0,13.9,6.2,13.9,13.9s0,23.3,0,23.3H132.7C132.7,134,132.7,118.4,132.7,110.7z"/>
	</g>
	<g>
		<g opacity="0.25">
			<line fill="none" stroke="#999999" stroke-width="1.0003" x1="29.3" y1="141.4" x2="29.3" y2="297.1"/>
			<line fill="none" stroke="#999999" stroke-width="1.0003" x1="47.7" y1="141.4" x2="47.7" y2="297.1"/>
			<line fill="none" stroke="#999999" stroke-width="1.0003" x1="66.1" y1="141.4" x2="66.1" y2="297.1"/>
			<line fill="none" stroke="#999999" stroke-width="1.0003" x1="84.5" y1="141.4" x2="84.5" y2="297.1"/>
			<line fill="none" stroke="#999999" stroke-width="1.0003" x1="38.5" y1="141.4" x2="38.5" y2="297.1"/>
			<line fill="none" stroke="#999999" stroke-width="1.0003" x1="56.9" y1="141.4" x2="56.9" y2="297.1"/>
			<line fill="none" stroke="#999999" stroke-width="1.0003" x1="75.3" y1="141.4" x2="75.3" y2="297.1"/>
			<line fill="none" stroke="#999999" stroke-width="1.0003" x1="93.7" y1="141.4" x2="93.7" y2="297.1"/>
			<line fill="none" stroke="#999999" stroke-width="1.0003" x1="20.5" y1="277.9" x2="102.7" y2="277.9"/>
			<line fill="none" stroke="#999999" stroke-width="1.0003" x1="20.5" y1="237.6" x2="102.7" y2="237.6"/>
			<line fill="none" stroke="#999999" stroke-width="1.0003" x1="20.5" y1="197.4" x2="102.7" y2="197.4"/>
			<line fill="none" stroke="#999999" stroke-width="1.0003" x1="20.5" y1="157.1" x2="102.7" y2="157.1"/>
			<line fill="none" stroke="#999999" stroke-width="1.0003" x1="20.5" y1="257.8" x2="102.7" y2="257.8"/>
			<line fill="none" stroke="#999999" stroke-width="1.0003" x1="20.5" y1="217.5" x2="102.7" y2="217.5"/>
			<line fill="none" stroke="#999999" stroke-width="1.0003" x1="20.5" y1="177.2" x2="102.7" y2="177.2"/>
			<line fill="none" stroke="#999999" stroke-width="1.0003" x1="102.7" y1="141.4" x2="102.7" y2="297.1"/>
			<line fill="none" stroke="#999999" stroke-width="1.0003" x1="111.5" y1="141.4" x2="111.5" y2="297.1"/>
			<line fill="none" stroke="#999999" stroke-width="1.0003" x1="130" y1="141.4" x2="130" y2="297.1"/>
			<line fill="none" stroke="#999999" stroke-width="1.0003" x1="148.4" y1="141.4" x2="148.4" y2="297.1"/>
			<line fill="none" stroke="#999999" stroke-width="1.0003" x1="166.8" y1="141.4" x2="166.8" y2="297.1"/>
			<line fill="none" stroke="#999999" stroke-width="1.0003" x1="120.7" y1="141.4" x2="120.7" y2="297.1"/>
			<line fill="none" stroke="#999999" stroke-width="1.0003" x1="139.2" y1="141.4" x2="139.2" y2="297.1"/>
			<line fill="none" stroke="#999999" stroke-width="1.0003" x1="157.6" y1="141.4" x2="157.6" y2="297.1"/>
			<line fill="none" stroke="#999999" stroke-width="1.0003" x1="176" y1="141.4" x2="176" y2="297.1"/>
			<line fill="none" stroke="#999999" stroke-width="1.0003" x1="102.7" y1="277.9" x2="185" y2="277.9"/>
			<line fill="none" stroke="#999999" stroke-width="1.0003" x1="102.7" y1="237.6" x2="185" y2="237.6"/>
			<line fill="none" stroke="#999999" stroke-width="1.0003" x1="102.7" y1="197.4" x2="185" y2="197.4"/>
			<line fill="none" stroke="#999999" stroke-width="1.0003" x1="102.7" y1="157.1" x2="185" y2="157.1"/>
			<line fill="none" stroke="#999999" stroke-width="1.0003" x1="102.7" y1="257.8" x2="185" y2="257.8"/>
			<line fill="none" stroke="#999999" stroke-width="1.0003" x1="102.7" y1="217.5" x2="185" y2="217.5"/>
			<line fill="none" stroke="#999999" stroke-width="1.0003" x1="102.7" y1="177.2" x2="185" y2="177.2"/>
			<line fill="none" stroke="#999999" stroke-width="1.0003" x1="102.7" y1="141.4" x2="102.7" y2="297.1"/>
			<line fill="none" stroke="#999999" stroke-width="1.0003" x1="185" y1="141.4" x2="185" y2="297.1"/>
		</g>
		<g>
			<g>
				<path fill="#FFFFFF" stroke="#999999" stroke-width="1.0003" d="M272.4,262c-0.8,0-1.4,0.8-1.4,1.8l0,0c0,0.1,0,1.3,0,1.3
					l34.3,1.2l-1.2-4.3H272.4z"/>
				<path fill="#FFFFFF" stroke="#999999" stroke-width="1.0003" d="M306,296.7c-5.6,0-16.8,0-22.5,0c0-9.4,0.4-16.5,2.5-20.3
					c2.9-5.4,19.8-8,23-2.2c-2.9,3-7.3,9.7-7.2,11C301.8,288.8,304.1,293.5,306,296.7L306,296.7z"/>
				<path fill="#FFFFFF" stroke="#999999" stroke-width="1.0003" d="M299.4,274.3c-3,3-7.3,4.9-12.1,4.9c-8.8,0-16-6.4-16.4-14.4
					h22.2h10.5h0.6V247c0-0.9,0.7-1.7,1.5-1.7h5.5c0.8,0,1.5,0.8,1.5,1.7v17.8v4.1v5.5L299.4,274.3L299.4,274.3L299.4,274.3z"/>
			</g>
			<g>
				<g>
					<g>
						<path fill="#FFFFFF" d="M64.1,253.6l-0.1-0.2c-3.4-4.5-1.8-6.6-0.3-8.4c0.8-0.9,1.5-1.8,1.6-3.1c-0.9-0.5-1.1-1.4-1-2
							c0.2-1,1-1.7,2-1.7s1.8,0.7,2.1,1.6c0.1,0.6,0,1.5-0.9,2c0.1,1.3,0.9,2.1,1.6,3.1c1.5,1.8,3.1,3.8-0.2,8.4l-0.1,0.2
							L64.1,253.6L64.1,253.6z"/>
						<path fill="#999999" d="M66.4,238.7c1.5,0,2.4,2,0.6,2.9c0.1,4.4,6.5,4.7,1.5,11.5h-4.1c-5-6.6,1.4-7.1,1.4-11.5
							C64,240.8,64.9,238.7,66.4,238.7C66.3,238.7,66.3,238.7,66.4,238.7 M66.4,237.7L66.4,237.7L66.4,237.7c-1.2,0-2.3,0.9-2.5,2.1
							c-0.2,0.9,0.2,1.8,0.9,2.3c-0.2,1-0.8,1.7-1.4,2.6c-1.5,1.9-3.3,4.2,0.3,9l0.3,0.4h0.5h4.1H69l0.3-0.4c3.6-4.9,1.7-7.2,0.2-9
							c-0.7-0.8-1.3-1.6-1.5-2.5c0.7-0.6,1.1-1.5,0.9-2.4C68.6,238.6,67.6,237.7,66.4,237.7L66.4,237.7z"/>
					</g>
					<g>
						<path fill="#FFFFFF" d="M58.7,253.6l-0.1-0.2c-2.5-3.3-1.3-4.8-0.2-6.1c0.5-0.6,1-1.2,1.1-2c-0.6-0.4-0.8-1-0.7-1.5
							c0.1-0.7,0.8-1.3,1.6-1.3s1.4,0.5,1.6,1.3c0.1,0.5,0,1.1-0.6,1.5c0.1,0.8,0.6,1.4,1.1,2c1.1,1.3,2.3,2.8-0.2,6.2l-0.1,0.2
							L58.7,253.6L58.7,253.6z"/>
						<path fill="#999999" d="M60.4,242.9c1,0,1.7,1.5,0.4,2c0.1,3.1,4.6,3.3,1.1,8.2H59c-3.5-4.7,1-5.1,1-8.2
							C58.7,244.4,59.3,242.9,60.4,242.9L60.4,242.9 M60.4,241.9L60.4,241.9L60.4,241.9c-1,0-1.9,0.7-2.1,1.7
							c-0.1,0.7,0.1,1.4,0.6,1.8c-0.1,0.5-0.5,0.9-0.9,1.5c-1.1,1.3-2.5,3.1,0.2,6.7l0.3,0.4H59h2.9h0.5l0.3-0.4
							c2.7-3.7,1.2-5.5,0.1-6.8c-0.5-0.6-0.8-1-0.9-1.5c0.5-0.5,0.7-1.1,0.6-1.8C62.2,242.6,61.4,241.9,60.4,241.9L60.4,241.9z"/>
					</g>
				</g>
				<g>
					<path fill="#FFFFFF" stroke="#999999" stroke-width="1.0003" d="M101.5,277h-4.2v-33.6c0-3.8,3.1-6.9,6.9-6.9s6.9,3.1,6.9,6.9
						h-4.2c0-1.5-1.2-2.7-2.7-2.7c-1.5,0-2.7,1.2-2.7,2.7L101.5,277L101.5,277z"/>
				</g>
				<path fill="#FFFFFF" stroke="#999999" stroke-width="1.0003" d="M159.6,251.1h-113c0,0-2.2,36,16.9,45c5.1,0,13.8,0,18.1,0
					c17.8,0,29.9,0,42.9,0c4.3,0,13,0,18.1,0C161.8,287.1,159.6,251.1,159.6,251.1z"/>
			</g>
			<g>
				<g>
					<g>
						<ellipse fill="#FFFFFF" stroke="#999999" stroke-width="1.0003" cx="228.5" cy="192.6" rx="22.5" ry="28.5"/>
						<ellipse fill="#FFFFFF" stroke="#999999" stroke-width="1.0003" cx="228.5" cy="192.6" rx="19.6" ry="25.2"/>
					</g>
				</g>
				<g>
					<g>
						<g>
							<path fill="#FFFFFF" d="M227.5,249.9V232c0-2.2,1.8-4,3.9-4h0.1c1.2,0,2.4,0.6,3.1,1.7c0.6,0.8,0.9,1.9,0.9,3.2v0.5H233v-0.5
								c0-0.8-0.2-1.4-0.5-1.9c-0.2-0.3-0.5-0.6-1-0.6c-0.9,0-1.4,0.8-1.4,1.6v17.9H227.5z"/>
							<path fill="#999999" d="M231.5,228.5c1.1,0,2,0.6,2.6,1.5c0.6,0.9,0.8,1.9,0.8,3h-1.5c0-0.8-0.1-1.6-0.5-2.1
								c-0.3-0.5-0.8-0.8-1.4-0.8l0,0c-1.1,0-1.9,1-1.9,2.1v17.4h-0.1H228v-17.4C228,230.1,229.5,228.5,231.5,228.5
								C231.4,228.5,231.4,228.5,231.5,228.5 M231.5,227.5L231.5,227.5L231.5,227.5c-2.5,0.1-4.5,2.1-4.5,4.5v17.4v1h1h1.5h0.1h1v-1
								V232c0-0.5,0.3-1,0.9-1.1l0,0c0.1,0,0.4,0,0.6,0.4c0.2,0.4,0.4,0.9,0.4,1.6v1h1h1.5h1v-1c0-1.4-0.3-2.6-1-3.5
								C234.1,228.2,232.9,227.5,231.5,227.5L231.5,227.5z"/>
						</g>
						<polygon fill="none" stroke="#999999" stroke-width="1.0003" points="231.5,246.6 225.6,246.6 225.6,296.6 231.5,296.6 						
							"/>
						<path fill="#FFFFFF" stroke="#999999" stroke-width="1.0003" d="M231.5,256.2v-1c-2,0.1-3.9,0.1-5.8,0v1l0,0"/>
						<path fill="#FFFFFF" stroke="#999999" stroke-width="1.0003" d="M252,242.6c0,0.1,0,0.2,0,0.3c0,6.9-10.5,12.4-23.5,12.4
							s-23.5-5.6-23.5-12.4c0-0.1,0-0.2,0-0.3H252L252,242.6z"/>
						<path fill="#FFFFFF" stroke="#999999" stroke-width="1.0003" d="M251.2,246.3h-45.3c-0.6-1.1-0.9-2.2-0.9-3.4
							c0-0.1,0-0.2,0-0.3h47c0,0.1,0,0.2,0,0.3C252.1,244.1,251.7,245.2,251.2,246.3L251.2,246.3z"/>
					</g>
					<g>
						<g>
							<g>
								<path fill="#FFFFFF" d="M221.3,240.8C221.2,240.8,221.2,240.8,221.3,240.8l-0.1-0.2L221.3,240.8L221.3,240.8z M220.1,240.6
									c-0.1,0-0.1,0-0.2,0c-0.1,0-0.2,0-0.3-0.1l-0.4-0.1l-0.3-0.3c-0.2-0.2-0.3-0.4-0.4-0.7l-0.1-0.4l0.1-0.5
									c0.1-0.3,0.2-0.5,0.4-0.7l0.3-0.3l0.4-0.2c0.2,0,0.3-0.1,0.5-0.1c0.1,0,0.1,0,0.2,0s0.2,0,0.3,0.1l0.4,0.1l0.3,0.3
									c0.2,0.2,0.3,0.4,0.4,0.7l0.1,0.4l-0.1,0.4c-0.1,0.3-0.2,0.5-0.4,0.7l-0.3,0.3l-0.4,0.1
									C220.4,240.5,220.3,240.6,220.1,240.6z"/>
								<path fill="#999999" d="M220.1,237.9L220.1,237.9c0.2,0,0.2,0,0.3,0l0.3,0.1l0.2,0.2c0.1,0.1,0.2,0.3,0.2,0.5l0.1,0.3
									l-0.1,0.3c0,0.2-0.1,0.3-0.3,0.5l-0.2,0.2l-0.3,0.1c-0.1,0-0.2,0-0.3,0h-0.1c-0.1,0-0.1,0-0.2,0l-0.3-0.1l-0.2-0.2
									c-0.1-0.1-0.2-0.3-0.2-0.5l-0.1-0.3l0.1-0.3c0-0.2,0.1-0.3,0.3-0.5l0.2-0.2l0.3-0.1C219.9,237.9,220,237.9,220.1,237.9
									 M219,236.6c-0.1,0-0.2,0-0.3,0.1c-0.3,0.2-0.3,0.5-0.2,0.7c0,0,0,0.1,0.1,0.1c-0.2,0.2-0.4,0.5-0.5,0.9H218
									c-0.3,0-0.5,0.2-0.5,0.5s0.2,0.5,0.5,0.5l0,0l0,0h0.1c0.1,0.3,0.3,0.6,0.5,0.9c0,0,0,0.1-0.1,0.1c-0.2,0.3-0.1,0.6,0.2,0.7
									c0.1,0.1,0.2,0.1,0.3,0.1c0.2,0,0.4-0.1,0.5-0.2v-0.1c0.1,0,0.2,0.1,0.4,0.1c0.1,0,0.2,0,0.3,0c0.2,0,0.4,0,0.6-0.1v0.1
									c0.1,0.2,0.3,0.3,0.5,0.3c0.1,0,0.2,0,0.3-0.1c0.3-0.2,0.3-0.5,0.2-0.7c0,0,0-0.1-0.1-0.1c0.2-0.2,0.4-0.5,0.5-0.9h0.1
									c0.3,0,0.5-0.2,0.5-0.5s-0.2-0.5-0.5-0.5l0,0l0,0h-0.1c-0.1-0.3-0.3-0.6-0.5-0.9c0,0,0-0.1,0.1-0.1c0.2-0.3,0.1-0.6-0.2-0.7
									c-0.1-0.1-0.2-0.1-0.3-0.1c-0.2,0-0.4,0.1-0.5,0.2v0.1c-0.1,0-0.2-0.1-0.4-0.1c-0.1,0-0.2,0-0.3,0c-0.2,0-0.4,0-0.6,0.1
									v-0.1C219.3,236.7,219.2,236.6,219,236.6L219,236.6z"/>
							</g>
						</g>
						<g>
							<g>
								<path fill="#FFFFFF" d="M239.5,240.8L239.5,240.8l-0.1-0.2L239.5,240.8L239.5,240.8z M238.4,240.6c-0.1,0-0.1,0-0.2,0
									c-0.1,0-0.2,0-0.3-0.1l-0.4-0.1l-0.3-0.3c-0.2-0.2-0.3-0.4-0.4-0.7l-0.1-0.4l0.1-0.5c0.1-0.3,0.2-0.5,0.4-0.7l0.3-0.3
									l0.4-0.2c0.2,0,0.3-0.1,0.5-0.1c0.1,0,0.1,0,0.2,0c0.1,0,0.2,0,0.3,0.1l0.4,0.1l0.3,0.3c0.2,0.2,0.3,0.4,0.4,0.7l0.1,0.4
									l-0.1,0.4c-0.1,0.3-0.2,0.5-0.4,0.7l-0.3,0.3l-0.4,0.1C238.7,240.5,238.5,240.6,238.4,240.6z"/>
								<path fill="#999999" d="M238.3,237.9L238.3,237.9c0.2,0,0.2,0,0.3,0l0.3,0.1l0.2,0.2c0.1,0.1,0.2,0.3,0.2,0.5l0.1,0.3
									l-0.1,0.3c0,0.2-0.1,0.3-0.3,0.5l-0.2,0.2l-0.3,0.1c-0.1,0-0.2,0-0.3,0h-0.1c-0.1,0-0.1,0-0.2,0l-0.3-0.1l-0.2-0.2
									c-0.1-0.1-0.2-0.3-0.2-0.5l-0.1-0.3l0.1-0.3c0-0.2,0.1-0.3,0.3-0.5l0.2-0.2l0.3-0.1C238.1,237.9,238.2,237.9,238.3,237.9
									 M237.2,236.6c-0.1,0-0.2,0-0.3,0.1c-0.3,0.2-0.3,0.5-0.2,0.7c0,0,0,0.1,0.1,0.1c-0.2,0.2-0.4,0.5-0.5,0.9h-0.1
									c-0.3,0-0.5,0.2-0.5,0.5s0.2,0.5,0.5,0.5l0,0l0,0h0.1c0.1,0.3,0.3,0.6,0.5,0.9c0,0,0,0.1-0.1,0.1c-0.2,0.3-0.1,0.6,0.2,0.7
									c0.1,0.1,0.2,0.1,0.3,0.1c0.2,0,0.4-0.1,0.5-0.2v-0.1c0.1,0,0.2,0.1,0.4,0.1c0.1,0,0.2,0,0.3,0c0.2,0,0.4,0,0.6-0.1v0.1
									c0.1,0.2,0.3,0.3,0.5,0.3c0.1,0,0.2,0,0.3-0.1c0.3-0.2,0.3-0.5,0.2-0.7c0,0,0-0.1-0.1-0.1c0.2-0.2,0.4-0.5,0.5-0.9h0.1
									c0.3,0,0.5-0.2,0.5-0.5s-0.2-0.5-0.5-0.5l0,0l0,0h-0.1c-0.1-0.3-0.3-0.6-0.5-0.9c0,0,0-0.1,0.1-0.1c0.2-0.3,0.1-0.6-0.2-0.7
									c-0.1-0.1-0.2-0.1-0.3-0.1c-0.2,0-0.4,0.1-0.5,0.2v0.1c-0.1,0-0.2-0.1-0.4-0.1c-0.1,0-0.2,0-0.3,0c-0.2,0-0.4,0-0.6,0.1
									v-0.1C237.6,236.7,237.4,236.6,237.2,236.6L237.2,236.6z"/>
							</g>
						</g>
					</g>
				</g>
			</g>
		</g>
	</g>
	<g>
		<g>
			<path fill="#999999" d="M122.2,558.4l-8-25.8c-0.4-1.2,0.3-2.5,1.5-2.8l0.4-0.1c1.2-0.3,2.5,0.5,2.9,1.7l0.5,1.6l1.5-0.4
				l-0.5-1.6c-0.6-2.1-2.8-3.3-4.8-2.8l-0.4,0.1c-2,0.5-3.2,2.6-2.5,4.6l8,25.8L122.2,558.4z"/>
			<polygon fill="#FFFFFF" stroke="#999999" stroke-width="1.0003" points="113.8,557.8 135.6,604.5 127.4,554.5 			"/>
		</g>
		<path fill="#999999" d="M137,605.7c0.2,0.5-0.2,1-0.8,1.2l0,0c-0.6,0.1-1.2-0.2-1.3-0.7l-2.3-7.8c-0.2-0.5,0.2-1,0.8-1.2l0,0
			c0.6-0.1,1.2,0.2,1.3,0.7L137,605.7z"/>
	</g>
	<g>
		<polygon fill="#FFFFFF" stroke="#999999" stroke-width="1.0003" stroke-miterlimit="10" points="98.8,543.9 98.8,544 98.8,554 
			78.8,554 78.8,544 78.8,543.9 78.8,533.9 98.8,533.9 		"/>
		
			<rect x="80.8" y="535.7" fill="none" stroke="#999999" stroke-width="1.0003" stroke-miterlimit="10" width="15.9" height="16.4"/>
		<g>
			<line fill="none" stroke="#999999" stroke-width="1.0003" x1="88.2" y1="547" x2="92" y2="542.9"/>
			<line fill="none" stroke="#999999" stroke-width="1.0003" x1="84" y1="547.2" x2="92.2" y2="538.2"/>
		</g>
	</g>
	<g>
		<g>
			<g>
				<path fill="#999999" d="M37.1,311.1c0.5,0,0.9,0.4,0.9,0.9v8.9c0,0.5-0.4,0.9-0.9,0.9h-7c-0.5,0-0.9-0.4-0.9-0.9V312
					c0-0.5,0.4-0.9,0.9-0.9H37.1 M37.1,310.1h-7c-1,0-1.9,0.8-1.9,1.9v8.9c0,1,0.8,1.9,1.9,1.9h7c1,0,1.9-0.8,1.9-1.9V312
					C39,310.9,38.2,310.1,37.1,310.1L37.1,310.1z"/>
			</g>
		</g>
		<g>
			<g>
				<path fill="#FFFFFF" d="M29.7,313.5c-0.8,0-1.5-0.7-1.5-1.5v-6.6c0-0.8,0.7-1.5,1.5-1.5h7.9c0.8,0,1.5,0.7,1.5,1.5v6.6
					c0,0.8-0.7,1.5-1.5,1.5H29.7z"/>
				<path fill="#999999" d="M37.6,304.4c0.5,0,1,0.4,1,1v6.6c0,0.5-0.4,1-1,1h-7.9c-0.5,0-1-0.4-1-1v-6.6c0-0.5,0.4-1,1-1H37.6
					 M37.6,303.5h-7.9c-1.1,0-2,0.9-2,2v6.6c0,1.1,0.9,2,2,2h7.9c1.1,0,2-0.9,2-2v-6.6C39.6,304.4,38.7,303.5,37.6,303.5L37.6,303.5
					z"/>
			</g>
		</g>
		<g>
			<g>
				<path fill="#999999" d="M36.6,306.3h-5.9v4.9h5.9V306.3z"/>
			</g>
		</g>
		<g>
			<g>
				<g>
					<g>
						<g>
							<circle fill="#999999" cx="35" cy="316" r="0.5"/>
						</g>
					</g>
				</g>
				<g>
					<g>
						<g>
							<circle fill="#999999" cx="35.7" cy="318.3" r="0.5"/>
						</g>
					</g>
				</g>
				<g>
					<g>
						<g>
							<circle fill="#999999" cx="33.7" cy="319.7" r="0.5"/>
						</g>
					</g>
				</g>
				<g>
					<g>
						<g>
							<circle fill="#999999" cx="31.7" cy="318.3" r="0.5"/>
						</g>
					</g>
				</g>
				<g>
					<g>
						<g>
							<circle fill="#999999" cx="32.4" cy="316" r="0.5"/>
						</g>
					</g>
				</g>
			</g>
			<g>
				<circle fill="#999999" cx="33.7" cy="317.7" r="1"/>
			</g>
		</g>
	</g>
	<g>
		<g>
			<path fill="#FFFFFF" d="M314.5,511.6c-1.4,0-2.6-1.1-2.6-2.6v-14.1c0-1.4,1.1-2.6,2.6-2.6h18.5c1.4,0,2.6,1.1,2.6,2.6V509
				c0,1.4-1.1,2.6-2.6,2.6H314.5z"/>
			<path fill="#999999" d="M333.1,492.7c1.1,0,2.1,0.9,2.1,2.1V509c0,1.1-0.9,2.1-2.1,2.1h-18.5c-1.1,0-2.1-0.9-2.1-2.1v-14.1
				c0-1.1,0.9-2.1,2.1-2.1H333.1 M333.1,491.7h-18.5c-1.7,0-3.1,1.4-3.1,3.1V509c0,1.7,1.4,3.1,3.1,3.1h18.5c1.7,0,3.1-1.4,3.1-3.1
				v-14.1C336.1,493.1,334.8,491.7,333.1,491.7L333.1,491.7z"/>
		</g>
		<line fill="none" stroke="#999999" stroke-width="1.0003" x1="332.2" y1="496.8" x2="335.2" y2="496.8"/>
		<line fill="none" stroke="#999999" stroke-width="1.0003" x1="332.2" y1="498.8" x2="335.2" y2="498.8"/>
		<line fill="none" stroke="#999999" stroke-width="1.0003" x1="332.2" y1="500.8" x2="335.2" y2="500.8"/>
		<line fill="none" stroke="#999999" stroke-width="1.0003" x1="332.2" y1="502.8" x2="335.2" y2="502.8"/>
		<g>
			
				<ellipse transform="matrix(1.589118e-02 -0.9999 0.9999 1.589118e-02 -181.1715 815.4853)" fill="none" cx="323.7" cy="499.8" rx="0.6" ry="0.6"/>
			
				<ellipse transform="matrix(1.531472e-02 -0.9999 0.9999 1.531472e-02 -179.2036 817.9359)" fill="none" cx="325.7" cy="500" rx="0.6" ry="0.6"/>
			
				<ellipse transform="matrix(1.523742e-02 -0.9999 0.9999 1.523742e-02 -179.2206 813.8837)" fill="#999999" cx="323.6" cy="497.9" rx="0.6" ry="0.6"/>
			
				<ellipse transform="matrix(1.562086e-02 -0.9999 0.9999 1.562086e-02 -177.2715 815.6205)" fill="#999999" cx="325.6" cy="497.8" rx="0.6" ry="0.6"/>
			
				<ellipse transform="matrix(1.562086e-02 -0.9999 0.9999 1.562086e-02 -175.3046 817.6172)" fill="#999999" cx="327.6" cy="497.8" rx="0.6" ry="0.6"/>
			<path fill="#999999" d="M327.5,500.4L327.5,500.4c-0.3,0-0.6-0.3-0.6-0.6c0-0.3,0.3-0.6,0.6-0.6s0.6,0.3,0.6,0.6
				S327.8,500.4,327.5,500.4z"/>
			
				<ellipse transform="matrix(1.530251e-02 -0.9999 0.9999 1.530251e-02 -188.7838 808.0199)" fill="none" cx="315.8" cy="499.9" rx="0.6" ry="0.6"/>
			
				<ellipse transform="matrix(1.589118e-02 -0.9999 0.9999 1.589118e-02 -187.1397 809.6162)" fill="none" cx="317.7" cy="499.9" rx="0.6" ry="0.6"/>
			
				<ellipse transform="matrix(1.531472e-02 -0.9999 0.9999 1.531472e-02 -185.0797 811.9702)" fill="#999999" cx="319.7" cy="500" rx="0.6" ry="0.6"/>
			
				<ellipse transform="matrix(1.523742e-02 -0.9999 0.9999 1.523742e-02 -185.0012 808.0183)" fill="#999999" cx="317.7" cy="497.9" rx="0.6" ry="0.6"/>
			
				<ellipse transform="matrix(1.523742e-02 -0.9999 0.9999 1.523742e-02 -186.7416 806.0568)" fill="#999999" cx="315.8" cy="497.8" rx="0.6" ry="0.6"/>
			
				<ellipse transform="matrix(1.562086e-02 -0.9999 0.9999 1.562086e-02 -183.0505 809.7541)" fill="#999999" cx="319.7" cy="497.8" rx="0.6" ry="0.6"/>
			
				<ellipse transform="matrix(1.562086e-02 -0.9999 0.9999 1.562086e-02 -181.0833 811.7516)" fill="none" cx="321.7" cy="497.8" rx="0.6" ry="0.6"/>
			<path fill="none" d="M321.6,500.4L321.6,500.4c-0.3,0-0.6-0.3-0.6-0.6c0-0.3,0.3-0.6,0.6-0.6c0.3,0,0.6,0.3,0.6,0.6
				S321.9,500.4,321.6,500.4z"/>
			
				<ellipse transform="matrix(1.588086e-02 -0.9999 0.9999 1.588086e-02 -183.1832 817.4886)" fill="#999999" cx="323.7" cy="501.8" rx="0.6" ry="0.6"/>
			
				<ellipse transform="matrix(1.555251e-02 -0.9999 0.9999 1.555251e-02 -181.2038 819.7321)" fill="#999999" cx="325.7" cy="501.9" rx="0.6" ry="0.6"/>
			
				<ellipse transform="matrix(1.523967e-02 -0.9999 0.9999 1.523967e-02 -179.1225 821.6803)" fill="#999999" cx="327.6" cy="501.8" rx="0.6" ry="0.6"/>
			
				<ellipse transform="matrix(1.531472e-02 -0.9999 0.9999 1.531472e-02 -190.8023 809.8138)" fill="none" cx="315.8" cy="501.8" rx="0.6" ry="0.6"/>
			
				<ellipse transform="matrix(1.588086e-02 -0.9999 0.9999 1.588086e-02 -189.0574 811.5203)" fill="none" cx="317.7" cy="501.8" rx="0.6" ry="0.6"/>
			
				<ellipse transform="matrix(1.555251e-02 -0.9999 0.9999 1.555251e-02 -186.9771 813.6721)" fill="#999999" cx="319.7" cy="501.8" rx="0.6" ry="0.6"/>
			
				<ellipse transform="matrix(1.523967e-02 -0.9999 0.9999 1.523967e-02 -185.0007 815.7134)" fill="none" cx="321.6" cy="501.8" rx="0.6" ry="0.6"/>
			
				<ellipse transform="matrix(1.492085e-02 -0.9999 0.9999 1.492085e-02 -184.9005 819.9206)" fill="#999999" cx="323.7" cy="503.8" rx="0.6" ry="0.6"/>
			
				<ellipse transform="matrix(1.558623e-02 -0.9999 0.9999 1.558623e-02 -183.1404 821.4269)" fill="none" cx="325.6" cy="503.7" rx="0.6" ry="0.6"/>
			
				<ellipse transform="matrix(1.558623e-02 -0.9999 0.9999 1.558623e-02 -181.1737 823.4239)" fill="none" cx="327.6" cy="503.7" rx="0.6" ry="0.6"/>
			
				<ellipse transform="matrix(1.523742e-02 -0.9999 0.9999 1.523742e-02 -186.8408 817.7167)" fill="none" cx="321.7" cy="503.7" rx="0.6" ry="0.6"/>
			
				<ellipse transform="matrix(1.492085e-02 -0.9999 0.9999 1.492085e-02 -190.8759 813.8538)" fill="none" cx="317.6" cy="503.8" rx="0.6" ry="0.6"/>
			
				<ellipse transform="matrix(1.523742e-02 -0.9999 0.9999 1.523742e-02 -192.6214 811.8508)" fill="none" cx="315.8" cy="503.7" rx="0.6" ry="0.6"/>
			
				<ellipse transform="matrix(1.558623e-02 -0.9999 0.9999 1.558623e-02 -188.9197 815.5616)" fill="#999999" cx="319.7" cy="503.7" rx="0.6" ry="0.6"/>
			
				<ellipse transform="matrix(1.555251e-02 -0.9999 0.9999 1.555251e-02 -183.1253 821.4377)" fill="none" cx="325.6" cy="503.7" rx="0.6" ry="0.6"/>
			
				<ellipse transform="matrix(1.555251e-02 -0.9999 0.9999 1.555251e-02 -188.9044 815.5721)" fill="#999999" cx="319.7" cy="503.7" rx="0.6" ry="0.6"/>
			
				<ellipse transform="matrix(1.492085e-02 -0.9999 0.9999 1.492085e-02 -186.8266 821.8138)" fill="#999999" cx="323.7" cy="505.7" rx="0.6" ry="0.6"/>
			
				<ellipse transform="matrix(1.558623e-02 -0.9999 0.9999 1.558623e-02 -185.1616 823.4131)" fill="#999999" cx="325.6" cy="505.7" rx="0.6" ry="0.6"/>
			
				<ellipse transform="matrix(1.558623e-02 -0.9999 0.9999 1.558623e-02 -183.1944 825.4101)" fill="#999999" cx="327.6" cy="505.7" rx="0.6" ry="0.6"/>
			
				<ellipse transform="matrix(1.523742e-02 -0.9999 0.9999 1.523742e-02 -188.7659 819.8066)" fill="none" cx="321.8" cy="505.7" rx="0.6" ry="0.6"/>
			
				<ellipse transform="matrix(1.492085e-02 -0.9999 0.9999 1.492085e-02 -192.7002 815.8472)" fill="none" cx="317.7" cy="505.7" rx="0.6" ry="0.6"/>
			
				<ellipse transform="matrix(1.523742e-02 -0.9999 0.9999 1.523742e-02 -194.6441 813.8392)" fill="none" cx="315.8" cy="505.7" rx="0.6" ry="0.6"/>
			
				<ellipse transform="matrix(1.558623e-02 -0.9999 0.9999 1.558623e-02 -190.9405 817.5475)" fill="#999999" cx="319.7" cy="505.7" rx="0.6" ry="0.6"/>
		</g>
	</g>
	<g>
		<g>
			<g>
				<g>
					<polygon fill="#FFFFFF" points="282.1,606.5 279.2,596.3 283,596.3 286,606.5 					"/>
					<path fill="#999999" d="M282.7,596.8l2.6,9.2h-2.8l-2.6-9.2H282.7 M283.4,595.8h-4.9l3.2,11.2h4.9L283.4,595.8L283.4,595.8z"/>
				</g>
				<g>
					<polygon fill="#FFFFFF" points="181.9,606.5 184.9,596.3 188.6,596.3 185.8,606.5 					"/>
					<path fill="#999999" d="M188,596.8l-2.5,9.2h-2.8l2.6-9.2H188 M189.3,595.8h-4.8l-3.2,11.2h4.9L189.3,595.8L189.3,595.8z"/>
				</g>
			</g>
			<g>
				<path fill="#FFFFFF" stroke="#999999" stroke-width="1.0003" d="M277,545.1h-18.6c-3,0-10.9,0-13.9,0h-53.3
					c-4.4,0-7.9,3.9-7.9,8.7v30.3h67.2h1.9h32.5v-30.3C284.9,549,281.4,545.1,277,545.1z"/>
				<g>
					<path fill="#FFFFFF" d="M178.5,598.9c-4.2,0-7.7-3.8-7.7-8.5v-32c0-2,1.4-3.5,3.2-3.5h5c3.4,0,6.1,3,6.1,6.8v20.5H283v-20.5
						c0-3.7,2.7-6.8,6.1-6.8h5c1.7,0,3.2,1.6,3.2,3.5v32c0,4.7-3.5,8.5-7.7,8.5H178.5z"/>
					<g>
						<path fill="#999999" d="M293.9,555.4c1.5,0,2.7,1.4,2.7,3v32c0,4.4-3.2,8-7.2,8h-20.1h-36.1h-54.8c-4,0-7.2-3.6-7.2-8v-32
							c0-1.7,1.2-3,2.7-3h5c3.1,0,5.6,2.8,5.6,6.3v20v1h1h47.8h36.1h13h1v-1v-20c0-3.4,2.5-6.3,5.6-6.3H293.9 M293.9,554.4h-5
							c-3.6,0-6.6,3.2-6.6,7.3v20h-13h-36.1h-47.8v-20c0-4-3-7.3-6.6-7.3h-5c-2,0-3.7,1.8-3.7,4v32c0,5,3.7,9,8.2,9h54.8h36.1h20.1
							c4.5,0,8.2-4,8.2-9v-32C297.6,556.2,295.9,554.4,293.9,554.4L293.9,554.4z"/>
					</g>
				</g>
			</g>
			<path fill="none" stroke="#FFFFFF" stroke-width="1.0003" stroke-miterlimit="10" d="M221.8,597.3"/>
		</g>
	</g>
	<g>
		<g>
			<line fill="none" stroke="#999999" stroke-width="1.5005" x1="124.4" y1="298.8" x2="124.4" y2="344.5"/>
			<line fill="none" stroke="#999999" stroke-width="1.0003" x1="98" y1="335.2" x2="151" y2="335.1"/>
			
				<ellipse transform="matrix(1 -1.447825e-03 1.447825e-03 1 -0.485 0.2188)" fill="#FFFFFF" stroke="#999999" stroke-width="1.0003" cx="150.9" cy="335.1" rx="3.8" ry="3.8"/>
			
				<ellipse transform="matrix(1 -1.447825e-03 1.447825e-03 1 -0.4852 0.1423)" fill="#FFFFFF" stroke="#999999" stroke-width="1.0003" cx="98" cy="335.2" rx="3.8" ry="3.8"/>
			<line fill="none" stroke="#999999" stroke-width="1.0003" x1="107.6" y1="326.7" x2="141.3" y2="343.6"/>
			
				<ellipse transform="matrix(0.4501 -0.893 0.893 0.4501 -229.1904 315.1469)" fill="#FFFFFF" stroke="#999999" stroke-width="1.0003" cx="141.3" cy="343.7" rx="3.8" ry="3.8"/>
			
				<ellipse transform="matrix(0.4501 -0.893 0.893 0.4501 -232.5095 275.9615)" fill="#FFFFFF" stroke="#999999" stroke-width="1.0003" cx="107.8" cy="326.8" rx="3.8" ry="3.8"/>
			<line fill="none" stroke="#999999" stroke-width="1.0003" x1="141.3" y1="326.7" x2="107.6" y2="343.6"/>
			
				<ellipse transform="matrix(0.893 -0.4501 0.4501 0.893 -131.9451 98.5566)" fill="#FFFFFF" stroke="#999999" stroke-width="1.0003" cx="141.3" cy="326.7" rx="3.8" ry="3.8"/>
			
				<ellipse transform="matrix(0.893 -0.4501 0.4501 0.893 -142.8392 93.1805)" fill="#FFFFFF" stroke="#999999" stroke-width="1.0003" cx="124.5" cy="347" rx="3.8" ry="3.8"/>
			
				<ellipse transform="matrix(0.893 -0.4501 0.4501 0.893 -131.6269 90.5144)" fill="#FFFFFF" stroke="#999999" stroke-width="1.0003" cx="124.5" cy="322.1" rx="3.8" ry="3.8"/>
			
				<ellipse transform="matrix(0.893 -0.4501 0.4501 0.893 -143.1436 85.2808)" fill="#FFFFFF" stroke="#999999" stroke-width="1.0003" cx="107.8" cy="343.7" rx="3.8" ry="3.8"/>
		</g>
		<g>
			<g>
				<g>
					<g>
						<path fill="#FFFFFF" d="M61.5,409v-29.8H62c1.7,0,3.1,1.4,3.1,3.1V406c0,1.7-1.4,3.1-3.1,3.1h-0.5V409z"/>
						<path fill="#999999" d="M62,379.7c1.4,0,2.6,1.2,2.6,2.6V406c0,1.4-1.2,2.6-2.6,2.6l0,0V379.7L62,379.7 M62,378.7L62,378.7h-1
							v1v28.8v1h1c2,0,3.6-1.6,3.6-3.6v-23.7C65.6,380.3,64,378.7,62,378.7L62,378.7z"/>
					</g>
					<g>
						<path fill="#FFFFFF" d="M59.5,417.5c-0.3,0-0.6-0.3-0.6-0.6v-3h26.9c1.6,0,3,1.3,3,3c0,0.4-0.3,0.6-0.6,0.6H59.5z"/>
						<path fill="#999999" d="M85.8,414.4c1.4,0,2.5,1.1,2.5,2.5l0,0c0,0.1,0,0.1-0.1,0.1H59.5c-0.1,0-0.1,0-0.1-0.1v-2.5H85.8
							 M85.8,413.4H59.5h-1v1v2.5c0,0.6,0.5,1.1,1.1,1.1h28.7c0.6,0,1.1-0.5,1.1-1.1C89.3,414.9,87.7,413.4,85.8,413.4L85.8,413.4z"
							/>
					</g>
					<g>
						<path fill="#FFFFFF" d="M85,451.6v-9.5H62v9.5h-3.9V379c0-1.3,0.7-2.3,1.6-2.3h0.6c0.9,0,1.6,1,1.6,2.3v38.2h26
							c1.2,0,2.2,0.8,2.2,1.7v0.7c0,0.7-0.5,1.3-1.3,1.6v30.4L85,451.6L85,451.6z M85,437.9v-16.6H62v16.6H85z"/>
						<path fill="#999999" d="M60.4,377.2c0.6,0,1.1,0.8,1.1,1.8v38.7H88c0.9,0,1.7,0.6,1.7,1.2v0.7c0,0.6-0.6,1.1-1.3,1.2v30.3
							h-2.9v-9.5h-24v9.5h-2.9V379c0-1,0.5-1.8,1.1-1.8L60.4,377.2 M61.5,438.4h24v-17.6h-24V438.4 M60.4,376.2h-0.6
							c-1.2,0-2.1,1.2-2.1,2.8v72.1v1h1h2.9h1v-1v-8.5h22v8.5v1h1h2.9h1v-1v-29.6c0.8-0.4,1.3-1.1,1.3-1.9v-0.7
							c0-1.3-1.2-2.2-2.7-2.2H62.5V379C62.5,377.4,61.6,376.2,60.4,376.2L60.4,376.2z M62.5,421.8h22v15.6h-22V421.8L62.5,421.8z"/>
					</g>
				</g>
				<g>
					<g>
						<path fill="#FFFFFF" d="M186.9,409c-1.7,0-3.1-1.4-3.1-3.1v-23.7c0-1.7,1.4-3.1,3.1-3.1h0.5v0.5v29.3h-0.5V409z"/>
						<path fill="#999999" d="M187,379.7v28.8l0,0c-1.4,0-2.6-1.2-2.6-2.6v-23.7C184.4,380.9,185.5,379.7,187,379.7L187,379.7
							 M188,378.7h-1l0,0c-2,0-3.6,1.6-3.6,3.6V406c0,2,1.6,3.6,3.6,3.6h1v-1v-28.9V378.7L188,378.7z"/>
					</g>
					<g>
						<path fill="#FFFFFF" d="M160.7,417.5c-0.3,0-0.6-0.3-0.6-0.6c0-1.7,1.3-3,3-3H190v3c0,0.3-0.3,0.6-0.6,0.6H160.7z"/>
						<path fill="#999999" d="M189.5,414.4v2.5c0,0.1,0,0.1-0.1,0.1h-28.7c-0.1,0-0.1,0-0.1-0.1l0,0c0-1.4,1.1-2.5,2.5-2.5H189.5
							 M190.5,413.4h-1h-26.4c-1.9,0-3.5,1.6-3.5,3.5c0,0.6,0.5,1.1,1.1,1.1h28.7c0.6,0,1.1-0.5,1.1-1.1v-2.5L190.5,413.4
							L190.5,413.4z"/>
					</g>
					<g>
						<path fill="#FFFFFF" d="M186.9,451.6v-9.5h-23v9.5h-3.8v-30.4c-0.8-0.3-1.3-0.9-1.3-1.6v-0.7c0-1,1-1.7,2.2-1.7h26V379
							c0-1.3,0.7-2.3,1.6-2.3h0.6c0.9,0,1.6,1,1.6,2.3v72.6L186.9,451.6L186.9,451.6z M186.9,437.9v-16.6h-23v16.6H186.9z"/>
						<path fill="#999999" d="M189.2,377.2c0.6,0,1.1,0.8,1.1,1.8v72.1h-2.9v-9.5h-24v9.5h-2.9v-30.3c-0.8-0.1-1.3-0.6-1.3-1.2v-0.7
							c0-0.7,0.8-1.2,1.7-1.2h26.5V379c0-1,0.5-1.8,1.1-1.8L189.2,377.2 M163.5,438.4h24v-17.6h-24V438.4 M189.2,376.2h-0.6
							c-1.2,0-2.1,1.2-2.1,2.8v37.7H161c-1.5,0-2.7,1-2.7,2.2v0.7c0,0.8,0.5,1.5,1.3,1.9v29.6v1h1h2.9h1v-1v-8.5h22v8.5v1h1h2.9h1
							v-1V379C191.3,377.4,190.4,376.2,189.2,376.2L189.2,376.2z M164.5,421.8h22v15.6h-22V421.8L164.5,421.8z"/>
					</g>
				</g>
			</g>
			<g>
				<g>
					<g>
						<g>
							<path fill="#FFFFFF" d="M128,446.8h-0.2v-47.7h-6.5v47.7H121c-4,0-7.3,2-7.3,4.5l0,0h21.5C135.3,448.9,132,446.8,128,446.8z"
								/>
						</g>
						<g>
							<path fill="none" stroke="#999999" stroke-width="1.0003" d="M128,446.8h-0.2v-47.7h-6.5v47.7H121c-4,0-7.3,2-7.3,4.5l0,0
								h21.5C135.3,448.9,132,446.8,128,446.8z"/>
						</g>
					</g>
				</g>
				<g>
					<path fill="#FFFFFF" stroke="#999999" stroke-width="1.0003" d="M170.4,400.3H78.5l0,0c0-2.5,3.2-4.5,7.3-4.5h77.3
						C167.2,395.7,170.4,397.7,170.4,400.3L170.4,400.3z"/>
				</g>
				<g>
					<g>
						<path fill="#FFFFFF" stroke="#999999" stroke-width="1.0003" d="M120.6,395.7c-3.8-3.9-1.2-9.7,1-13.7h5.7
							c2.2,4,4.8,9.8,1,13.7C125.7,395.7,123.1,395.7,120.6,395.7L120.6,395.7z"/>
					</g>
					<g>
						<path fill="none" stroke="#999999" stroke-width="1.0003" d="M124.6,393.9c1.1-5.7-2.9-12-0.6-17.6l0,0"/>
						<path fill="#FFFFFF" stroke="#999999" stroke-width="1.0003" d="M129.6,368.9c0.7,0.5,0.1,2.4-1.2,4.2c-1.3,1.8-3,2.9-3.7,2.4
							s-0.1-2.4,1.2-4.2C127.3,369.4,129,368.3,129.6,368.9L129.6,368.9z"/>
						<path fill="#FFFFFF" stroke="#999999" stroke-width="1.0003" d="M124.8,367.1c-0.8-0.1-1.7,1.7-1.8,4
							c-0.2,2.2,0.4,4.1,1.2,4.2c0.8,0.1,1.7-1.7,1.8-4C126.2,369,125.6,367.1,124.8,367.1L124.8,367.1z"/>
						<path fill="#FFFFFF" stroke="#999999" stroke-width="1.0003" d="M127.4,367.6c0.8,0.3,0.8,2.2,0,4.4c-0.8,2.1-2.1,3.6-2.9,3.3
							c-0.8-0.3-0.8-2.2,0-4.4C125.3,368.8,126.6,367.3,127.4,367.6L127.4,367.6z"/>
						<path fill="#999999" d="M126.4,375c-0.8,1.2-1.7,1.9-2.4,1.6c-0.7-0.3-1-1.4-0.8-2.8L126.4,375L126.4,375z"/>
					</g>
					<path fill="none" stroke="#999999" stroke-width="1.0003" d="M118.8,392.4c0.9-1.8,8.8-1.9,11.2-0.9"/>
				</g>
			</g>
		</g>
	</g>
	<g>
		<g>
			<g>
				<polygon fill="none" stroke="#999999" stroke-width="1.0003" points="564.2,383.8 615.2,383.8 615.2,451.4 564.2,451.4 				"/>
				<polygon fill="#FFFFFF" stroke="#999999" stroke-width="1.0003" points="564.2,445.4 615.2,445.4 615.2,451.4 564.2,451.4 				
					"/>
				<polygon fill="none" stroke="#999999" stroke-width="1.0003" points="564.2,395 615.2,395 615.2,395.9 564.2,395.9 				"/>
				<path fill="#999999" d="M600.7,391.2c0-0.4,0.4-0.8,0.8-0.8c0.4,0,0.8,0.4,0.8,0.8s-0.4,0.8-0.8,0.8S600.7,391.7,600.7,391.2
					L600.7,391.2z"/>
				<path fill="#999999" d="M603.5,391.2c0-0.4,0.4-0.8,0.8-0.8c0.4,0,0.8,0.4,0.8,0.8s-0.4,0.8-0.8,0.8
					C603.9,392,603.5,391.7,603.5,391.2L603.5,391.2z"/>
				<path fill="#999999" d="M606,391.2c0-0.4,0.3-0.8,0.8-0.8c0.4,0,0.8,0.4,0.8,0.8s-0.3,0.8-0.8,0.8
					C606.4,392,606,391.7,606,391.2L606,391.2z"/>
				<path fill="#999999" d="M600.7,388.4c0-0.4,0.4-0.8,0.8-0.8c0.4,0,0.8,0.4,0.8,0.8c0,0.4-0.4,0.8-0.8,0.8
					S600.7,388.8,600.7,388.4L600.7,388.4z"/>
				<path fill="#999999" d="M603.5,388.4c0-0.4,0.4-0.8,0.8-0.8c0.4,0,0.8,0.4,0.8,0.8c0,0.4-0.4,0.8-0.8,0.8
					C603.9,389.2,603.5,388.8,603.5,388.4L603.5,388.4z"/>
				<path fill="#999999" d="M606,388.4c0-0.4,0.3-0.8,0.8-0.8c0.4,0,0.8,0.4,0.8,0.8c0,0.4-0.3,0.8-0.8,0.8
					C606.4,389.2,606,388.8,606,388.4L606,388.4z"/>
				<path fill="none" stroke="#999999" stroke-width="1.0003" d="M574.6,386.3c1.9,0,3.5,1.6,3.5,3.5c0,1.9-1.6,3.5-3.5,3.5
					c-1.9,0-3.5-1.6-3.5-3.5C571.1,387.9,572.7,386.3,574.6,386.3L574.6,386.3z"/>
				<path fill="none" stroke="#999999" stroke-width="1.0003" d="M589.1,405.9c8.9,0,16.1,7.2,16.1,16.1c0,8.9-7.2,16.1-16.1,16.1
					c-8.9,0-16.1-7.2-16.1-16.1S580.2,405.9,589.1,405.9L589.1,405.9z"/>
				<path fill="none" stroke="#999999" stroke-width="1.0003" stroke-miterlimit="10" d="M589.1,411.1c6,0,10.9,4.9,10.9,10.9
					c0,6-4.9,10.9-10.9,10.9s-10.9-4.9-10.9-10.9C578.2,415.9,583.1,411.1,589.1,411.1L589.1,411.1z"/>
				<path fill="none" stroke="#999999" stroke-width="1.0003" d="M600,422c0,6-4.9,10.9-10.9,10.9s-10.9-4.9-10.9-10.9
					C588.7,427.8,600,416,600,422z"/>
			</g>
			<g>
				<polygon fill="none" stroke="#999999" stroke-width="1.0003" points="507.9,383.8 559,383.8 559,451.4 507.9,451.4 				"/>
				<polygon fill="#FFFFFF" stroke="#999999" stroke-width="1.0003" points="507.9,445.4 559,445.4 559,451.4 507.9,451.4 				"/>
				<polygon fill="none" stroke="#999999" stroke-width="1.0003" points="507.9,395 559,395 559,395.9 507.9,395.9 				"/>
				<path fill="none" stroke="#999999" stroke-width="1.0003" d="M513.1,387.5h5.6c1.2,0,2.1,0.9,2.1,2.1v0.4c0,1.2-1,2.1-2.1,2.1
					h-5.6c-1.2,0-2.1-0.9-2.1-2.1v-0.4C511,388.4,512,387.5,513.1,387.5L513.1,387.5z"/>
				<path fill="#999999" d="M525.4,386.4c0.4,0,0.8,0.4,0.8,0.8c0,0.4-0.4,0.8-0.8,0.8c-0.4,0-0.8-0.4-0.8-0.8
					C524.7,386.7,525,386.4,525.4,386.4L525.4,386.4z"/>
				<path fill="#999999" d="M525.4,389.1c0.4,0,0.8,0.4,0.8,0.8c0,0.4-0.4,0.8-0.8,0.8c-0.4,0-0.8-0.4-0.8-0.8
					C524.7,389.4,525,389.1,525.4,389.1L525.4,389.1z"/>
				<path fill="#999999" d="M525.4,391.7c0.4,0,0.8,0.3,0.8,0.8c0,0.4-0.4,0.8-0.8,0.8c-0.4,0-0.8-0.3-0.8-0.8
					C524.7,392,525,391.7,525.4,391.7L525.4,391.7z"/>
				<path fill="#999999" d="M528.3,386.4c0.4,0,0.8,0.4,0.8,0.8c0,0.4-0.4,0.8-0.8,0.8s-0.8-0.4-0.8-0.8
					C527.5,386.7,527.9,386.4,528.3,386.4L528.3,386.4z"/>
				<path fill="#999999" d="M528.3,389.1c0.4,0,0.8,0.4,0.8,0.8c0,0.4-0.4,0.8-0.8,0.8s-0.8-0.4-0.8-0.8
					C527.5,389.4,527.9,389.1,528.3,389.1L528.3,389.1z"/>
				<path fill="#999999" d="M528.3,391.7c0.4,0,0.8,0.3,0.8,0.8c0,0.4-0.4,0.8-0.8,0.8s-0.8-0.3-0.8-0.8S527.9,391.7,528.3,391.7
					L528.3,391.7z"/>
				<polygon fill="none" stroke="#999999" stroke-width="1.0003" points="531.2,387.8 546,387.8 546,391.8 531.2,391.8 				"/>
				<path fill="none" stroke="#999999" stroke-width="1.0003" d="M551.7,386.3c1.9,0,3.5,1.6,3.5,3.5c0,1.9-1.6,3.5-3.5,3.5
					c-1.9,0-3.5-1.6-3.5-3.5C548.2,387.9,549.7,386.3,551.7,386.3L551.7,386.3z"/>
				<path fill="none" stroke="#999999" stroke-width="1.0003" d="M532.8,405.9c8.9,0,16.1,7.2,16.1,16.1c0,8.9-7.2,16.1-16.1,16.1
					s-16.1-7.2-16.1-16.1S523.9,405.9,532.8,405.9L532.8,405.9z"/>
				<path fill="none" stroke="#999999" stroke-width="1.0003" stroke-miterlimit="10" d="M532.8,409.4c6.9,0,12.6,5.6,12.6,12.6
					c0,6.9-5.6,12.6-12.6,12.6c-6.9,0-12.6-5.6-12.6-12.6S525.8,409.4,532.8,409.4L532.8,409.4z"/>
			</g>
		</g>
		<g>
			<rect x="596.3" y="343.1" fill="#FFFFFF" stroke="#999999" stroke-width="1.0003" width="13.5" height="18.6"/>
			<path fill="#FFFFFF" stroke="#999999" stroke-width="1.0003" d="M610.7,362.5h-15.2v-20.3h15.2V362.5z M597.1,360.8h11.8v-16.9
				h-11.8V360.8z"/>
		</g>
		<path fill="#FFFFFF" stroke="#999999" stroke-width="1.0003" d="M570.8,340.1h0.2v-2.7l0,0l0,0c0-0.3,1.4-0.5,3.2-0.5
			c1.7,0,3.1,0.2,3.2,0.5v2.7h0.2c1.2,0,2.2,1,2.2,2.2v18.4c0,1.2-1,2.2-2.2,2.2h-6.7c-1.2,0-2.2-1-2.2-2.2v-18.4
			C568.6,341.1,569.6,340.1,570.8,340.1L570.8,340.1z"/>
		<path fill="#FFFFFF" stroke="#999999" stroke-width="1.0003" d="M576.6,349.9h0.2v-2.7l0,0l0,0c0-0.3,2.5-0.5,4.2-0.5
			s4.2,0.2,4.2,0.5v2.7h0.2c1.2,0,2.2,1,2.2,2.2v8.7c0,1.2-1,2.2-2.2,2.2h-8.9c-1.2,0-2.2-1-2.2-2.2v-8.7
			C574.4,350.9,575.4,349.9,576.6,349.9L576.6,349.9z"/>
		<rect x="595.6" y="346.7" fill="#FFFFFF" stroke="#999999" stroke-width="1.0003" width="15" height="11.4"/>
		<rect x="580.2" y="353.1" fill="#FFFFFF" stroke="#999999" stroke-width="1.0003" width="7.4" height="1.7"/>
		<rect x="580.2" y="356.2" fill="#FFFFFF" stroke="#999999" stroke-width="1.0003" width="7.4" height="3.2"/>
		<g>
			<g>
				<g>
					<rect x="566.1" y="364.7" fill="#999999" width="2.9" height="3.2"/>
					<rect x="609.7" y="364.7" fill="#999999" width="2.9" height="3.2"/>
				</g>
			</g>
			<rect x="561.5" y="362.5" fill="#FFFFFF" stroke="#999999" stroke-width="1.0003" width="55.6" height="2.2"/>
		</g>
		<line fill="none" stroke="#999999" stroke-width="1.0003" x1="571" y1="340.1" x2="577.4" y2="340.1"/>
		<line fill="none" stroke="#999999" stroke-width="1.0003" x1="576.9" y1="349.9" x2="585.1" y2="349.9"/>
	</g>
	<path fill="none" stroke="#999999" stroke-width="1.0003" stroke-miterlimit="10" d="M606.5,301.8h-9.2c-1.3,0-2.3-0.8-2.3-1.8
		v-2.8h13.9v2.8C608.9,301.1,607.8,301.8,606.5,301.8z"/>
	<g>
		<g>
			<polyline fill="none" stroke="#999999" stroke-width="1.0003" stroke-miterlimit="10" points="507.2,308.6 507.2,313.3 
				565.5,313.3 565.5,308.2 			"/>
			<g>
				<circle fill="#999999" cx="507.2" cy="308.7" r="1.1"/>
			</g>
			<g>
				<circle fill="#999999" cx="565.5" cy="308.2" r="1.1"/>
			</g>
		</g>
	</g>
	<g>
		<g>
			<path fill="#999999" d="M537.4,323.8L537.4,323.8h-26.9c-0.2,0-0.4-0.1-0.4-0.3c0-0.2,0-0.4,0.2-0.5l13.4-6.5
				c0.1-0.1,0.3-0.1,0.4,0l13.4,6.5c0.2,0,0.3,0.2,0.3,0.4C537.9,323.6,537.7,323.8,537.4,323.8z M512.3,323h23.2l-11.6-5.6
				L512.3,323z"/>
		</g>
		<g>
			<g>
				<path fill="#999999" d="M523.9,317.4c-0.2,0-0.4-0.2-0.4-0.4v-0.8c0-0.2,0.2-0.4,0.4-0.4c0.2,0,0.4,0.2,0.4,0.4v0.8
					C524.3,317.2,524.1,317.4,523.9,317.4z"/>
			</g>
			<g>
				<path fill="#999999" d="M523.9,316.6c-0.2,0-0.4-0.2-0.4-0.4c0-1,0.6-1.5,1.1-2c0.2-0.2,0.5-0.4,0.5-0.6c0-0.5-0.1-0.9-0.3-1.1
					c-0.3-0.3-0.9-0.4-1.4-0.3c-1.1,0.1-1,1-1,1.2s-0.2,0.4-0.4,0.5c-0.2,0-0.4-0.2-0.5-0.4c-0.1-0.7,0.3-2,1.8-2.1
					c0.9-0.1,1.6,0.1,2.1,0.6c0.4,0.4,0.6,1,0.5,1.8c0,0.5-0.4,0.8-0.8,1.2c-0.4,0.4-0.8,0.7-0.8,1.3
					C524.3,316.4,524.1,316.6,523.9,316.6z"/>
			</g>
		</g>
	</g>
	<g>
		<g>
			<path fill="#999999" d="M571.2,323.8L571.2,323.8h-26.9c-0.2,0-0.4-0.1-0.4-0.3c0-0.2,0-0.4,0.2-0.5l13.4-6.5
				c0.1-0.1,0.3-0.1,0.4,0l13.4,6.5c0.2,0,0.3,0.2,0.3,0.4S571.4,323.8,571.2,323.8z M546.2,323h23.2l-11.6-5.6L546.2,323z"/>
		</g>
		<g>
			<g>
				<path fill="#999999" d="M557.7,317.4c-0.2,0-0.4-0.2-0.4-0.4v-0.8c0-0.2,0.2-0.4,0.4-0.4s0.4,0.2,0.4,0.4v0.8
					C558.1,317.2,557.9,317.4,557.7,317.4z"/>
			</g>
			<g>
				<path fill="#999999" d="M557.7,316.6c-0.2,0-0.4-0.2-0.4-0.4c0-1,0.6-1.5,1.1-2c0.2-0.2,0.5-0.4,0.5-0.6c0-0.5-0.1-0.9-0.3-1.1
					c-0.3-0.3-0.9-0.4-1.4-0.3c-1.1,0.1-1,1-1,1.2s-0.2,0.4-0.4,0.5c-0.2,0-0.4-0.2-0.5-0.4c-0.1-0.7,0.3-2,1.8-2.1
					c0.9-0.1,1.6,0.1,2.1,0.6c0.4,0.4,0.6,1,0.5,1.8c0,0.5-0.4,0.8-0.8,1.2c-0.4,0.4-0.8,0.7-0.8,1.3
					C558.1,316.4,557.9,316.6,557.7,316.6z"/>
			</g>
		</g>
	</g>
	<g>
		<g>
			<g>
				<polygon fill="#FFFFFF" stroke="#999999" stroke-width="1.0003" points="561.4,126 556.5,126 559.7,140.6 564.6,140.6 				"/>
				<polygon fill="#FFFFFF" stroke="#999999" stroke-width="1.0003" points="510,126 514.9,126 511.7,140.6 506.9,140.6 				"/>
			</g>
			<g>
				<path fill="#FFFFFF" stroke="#999999" stroke-width="1.0003" d="M517.3,125.4h5.5c3,0,10.9,0,13.9,0h18.6c4.4,0,7.9-3.9,7.9-8.7
					V93.9c0-4.2-3.4-7.6-7.6-7.6h-24.9h-1.9h-11.9c-4.2,0-7.6,3.4-7.6,7.6v22.7C509.4,121.5,513,125.4,517.3,125.4z"/>
				<path fill="#FFFFFF" stroke="#999999" stroke-width="1.0003" d="M560.4,98.3v16.9h-13h-23.2h-13V98.3c0-3.5-2.8-6.3-6.3-6.3l0,0
					c-3.5,0-6.3,2.8-6.3,6.3v20.5c0,5,3.7,9,8.2,9h17.4h23.1h17.5c4.5,0,8.2-4,8.2-9V98.3c0-3.5-2.8-6.3-6.3-6.3l0,0
					C563.2,91.9,560.4,94.8,560.4,98.3z"/>
			</g>
			<path fill="none" stroke="#FFFFFF" stroke-width="1.0003" stroke-miterlimit="10" d="M512.8,130.9"/>
		</g>
	</g>
	<g>
		<rect x="347" y="99.1" fill="#FFFFFF" stroke="#999999" stroke-width="1.0003" width="65.5" height="33.5"/>
		<g>
			<rect x="347" y="98.7" fill="#999999" width="65.5" height="1.1"/>
		</g>
		<g>
			<rect x="347" y="114.3" fill="#999999" width="65.5" height="1.1"/>
		</g>
		<rect x="350.8" y="132.8" fill="#999999" width="6.5" height="7.8"/>
		<rect x="402.3" y="132.8" fill="#999999" width="6.5" height="7.8"/>
		<g>
			<path fill="#FFFFFF" stroke="#999999" stroke-width="1.0003" d="M368.4,108.5c-1,0-1.8-0.8-1.8-1.8c0-1,0.8-1.8,1.8-1.8
				s1.8,0.8,1.8,1.8C370.2,107.7,369.4,108.5,368.4,108.5z"/>
		</g>
		<g>
			<path fill="#FFFFFF" stroke="#999999" stroke-width="1.0003" d="M368.4,125.4c-1,0-1.8-0.8-1.8-1.8c0-1,0.8-1.8,1.8-1.8
				s1.8,0.8,1.8,1.8C370.2,124.6,369.4,125.4,368.4,125.4z"/>
		</g>
		<g>
			<path fill="#FFFFFF" stroke="#999999" stroke-width="1.0003" d="M391.1,108.5c-1,0-1.8-0.8-1.8-1.8c0-1,0.8-1.8,1.8-1.8
				c1,0,1.8,0.8,1.8,1.8C392.9,107.7,392.1,108.5,391.1,108.5z"/>
		</g>
		<g>
			<path fill="#FFFFFF" stroke="#999999" stroke-width="1.0003" d="M391.1,125.4c-1,0-1.8-0.8-1.8-1.8c0-1,0.8-1.8,1.8-1.8
				c1,0,1.8,0.8,1.8,1.8C392.9,124.6,392.1,125.4,391.1,125.4z"/>
		</g>
	</g>
	<g>
		<rect x="520.9" y="27.3" fill="#FFFFFF" stroke="#999999" stroke-width="1.0003" width="29.5" height="45.7"/>
		<rect x="520.9" y="42.1" fill="#FFFFFF" stroke="#999999" stroke-width="1.0003" width="29.5" height="16.1"/>
	</g>
	<g>
		<g>
			<polygon id="SVGID_1_" fill="#FFFFFF" points="209.1,50.8 209,50.8 176.8,50.8 176.8,16.4 209,16.4 209.1,16.4 241.3,16.4 
				241.3,50.8 			"/>
		</g>
		<g>
			<g>
				<g>
					<g>
						<defs>
							<polygon id="SVGID_3_" points="209.1,50.8 209,50.8 176.8,50.8 176.8,16.4 209,16.4 209.1,16.4 241.3,16.4 241.3,50.8 
															"/>
						</defs>
						<clipPath id="SVGID_4_">
							<use xlink:href="#SVGID_3_"  overflow="visible"/>
						</clipPath>
						<g opacity="0.3" clip-path="url(#SVGID_4_)">
							<line fill="none" stroke="#999999" stroke-width="1.0003" x1="182.7" y1="24.4" x2="219.4" y2="61.2"/>
							<line fill="none" stroke="#999999" stroke-width="1.0003" x1="191.1" y1="16" x2="227.8" y2="52.7"/>
							<line fill="none" stroke="#999999" stroke-width="1.0003" x1="199.5" y1="7.5" x2="236.2" y2="44.3"/>
							<line fill="none" stroke="#999999" stroke-width="1.0003" x1="178.4" y1="28.6" x2="215.1" y2="65.4"/>
							<line fill="none" stroke="#999999" stroke-width="1.0003" x1="186.9" y1="20.2" x2="223.6" y2="57"/>
							<line fill="none" stroke="#999999" stroke-width="1.0003" x1="195.3" y1="11.8" x2="232" y2="48.5"/>
							<line fill="none" stroke="#999999" stroke-width="1.0003" x1="203.6" y1="3.3" x2="240.4" y2="40.1"/>
							<line fill="none" stroke="#999999" stroke-width="1.0003" x1="201.1" y1="59.4" x2="234.3" y2="26.2"/>
							<line fill="none" stroke="#999999" stroke-width="1.0003" x1="194.5" y1="52.7" x2="227.6" y2="19.5"/>
							<line fill="none" stroke="#999999" stroke-width="1.0003" x1="187.8" y1="46" x2="220.9" y2="12.8"/>
							<line fill="none" stroke="#999999" stroke-width="1.0003" x1="181.1" y1="39.3" x2="214.2" y2="6.2"/>
							<line fill="none" stroke="#999999" stroke-width="1.0003" x1="177.8" y1="36" x2="210.8" y2="2.8"/>
							<line fill="none" stroke="#999999" stroke-width="1.0003" x1="197.8" y1="56" x2="230.9" y2="22.9"/>
							<line fill="none" stroke="#999999" stroke-width="1.0003" x1="204.4" y1="62.7" x2="237.6" y2="29.6"/>
							<line fill="none" stroke="#999999" stroke-width="1.0003" x1="207.8" y1="66.1" x2="240.9" y2="32.9"/>
							<line fill="none" stroke="#999999" stroke-width="1.0003" x1="211.1" y1="69.4" x2="244.3" y2="36.3"/>
							<line fill="none" stroke="#999999" stroke-width="1.0003" x1="191.1" y1="49.3" x2="224.2" y2="16.2"/>
							<line fill="none" stroke="#999999" stroke-width="1.0003" x1="184.5" y1="42.7" x2="217.5" y2="9.5"/>
							<line fill="none" stroke="#999999" stroke-width="1.0003" x1="174.4" y1="32.6" x2="211.1" y2="69.4"/>
							<line fill="none" stroke="#999999" stroke-width="1.0003" x1="207.5" y1="-0.5" x2="244.3" y2="36.3"/>
							<line fill="none" stroke="#999999" stroke-width="1.0003" x1="174.4" y1="32.6" x2="207.5" y2="-0.5"/>
						</g>
					</g>
				</g>
			</g>
		</g>
		<g>
			<polygon id="SVGID_2_" fill="none" stroke="#999999" stroke-width="1.0003" points="209.1,50.8 209,50.8 176.8,50.8 176.8,16.4 
				209,16.4 209.1,16.4 241.3,16.4 241.3,50.8 			"/>
		</g>
	</g>
	<g>
		<g>
			<polygon fill="none" stroke="#999999" stroke-width="1.0003" stroke-miterlimit="10" points="380,78.5 379.7,78.5 336.9,78.5 
				336.9,16.1 379.7,16.1 380,16.1 422.8,16.1 422.8,78.5 			"/>
			<g>
				
					<rect x="341" y="20.2" fill="none" stroke="#999999" stroke-width="1.0003" stroke-miterlimit="10" width="37.5" height="54.3"/>
				
					<rect x="381.2" y="20.2" fill="none" stroke="#999999" stroke-width="1.0003" stroke-miterlimit="10" width="37.5" height="54.3"/>
			</g>
		</g>
		<g>
			<g>
				
					<line opacity="0.3" fill="none" stroke="#999999" stroke-width="1.0003" enable-background="new    " x1="393" y1="53.6" x2="402.4" y2="61.2"/>
				
					<line opacity="0.3" fill="none" stroke="#999999" stroke-width="1.0003" enable-background="new    " x1="392.5" y1="45.1" x2="413" y2="61.6"/>
			</g>
			<g>
				
					<line opacity="0.3" fill="none" stroke="#999999" stroke-width="1.0003" enable-background="new    " x1="352.8" y1="53.6" x2="362.2" y2="61.2"/>
				
					<line opacity="0.3" fill="none" stroke="#999999" stroke-width="1.0003" enable-background="new    " x1="352.3" y1="45.1" x2="372.8" y2="61.6"/>
			</g>
		</g>
		<path fill="none" stroke="#999999" stroke-width="1.0003" d="M324.9,93.7h-0.7c-1.2,0-2.2-1-2.2-2.2V16.2c0-1.2,1-2.2,2.2-2.2h0.7
			c1.2,0,2.2,1,2.2,2.2v75.4C327,92.8,326,93.7,324.9,93.7z"/>
		<path fill="none" stroke="#999999" stroke-width="1.0003" d="M329.6,93.7h-0.7c-1.2,0-2.2-1-2.2-2.2V16.2c0-1.2,1-2.2,2.2-2.2h0.7
			c1.2,0,2.2,1,2.2,2.2v75.4C331.9,92.8,330.9,93.7,329.6,93.7z"/>
		<path fill="none" stroke="#999999" stroke-width="1.0003" d="M334.5,93.7h-0.7c-1.2,0-2.2-1-2.2-2.2V16.2c0-1.2,1-2.2,2.2-2.2h0.7
			c1.2,0,2.2,1,2.2,2.2v75.4C336.7,92.8,335.7,93.7,334.5,93.7z"/>
		<path fill="none" stroke="#999999" stroke-width="1.0003" d="M425.7,93.7H425c-1.2,0-2.2-1-2.2-2.2V16.2c0-1.2,1-2.2,2.2-2.2h0.7
			c1.2,0,2.2,1,2.2,2.2v75.4C427.9,92.8,426.9,93.7,425.7,93.7z"/>
		<path fill="none" stroke="#999999" stroke-width="1.0003" d="M430.5,93.7h-0.7c-1.2,0-2.2-1-2.2-2.2V16.2c0-1.2,1-2.2,2.2-2.2h0.7
			c1.2,0,2.2,1,2.2,2.2v75.4C432.6,92.8,431.7,93.7,430.5,93.7z"/>
		<path fill="none" stroke="#999999" stroke-width="1.0003" d="M435.3,93.7h-0.7c-1.2,0-2.2-1-2.2-2.2V16.2c0-1.2,1-2.2,2.2-2.2h0.7
			c1.2,0,2.2,1,2.2,2.2v75.4C437.4,92.8,436.5,93.7,435.3,93.7z"/>
	</g>
	<g>
		<path fill="none" stroke="#999999" stroke-width="1.0003" stroke-miterlimit="10" d="M318.5,156.8l0.4-6.5l5,1.2l-1.3,6.2
			C322.5,157.7,318.5,156.8,318.5,156.8z"/>
		<path fill="#FFFFFF" stroke="#999999" stroke-width="1.0003" stroke-miterlimit="10" d="M324.3,162.5c-2.6-0.6-4.8-4.3-4-8.2
			c0.8-3.8,4-6.4,7-5.8l3.4,0.7l-3,13.9C327.7,163.2,324.4,162.5,324.3,162.5z"/>
		<g>
			<g>
				<path fill="#FFFFFF" stroke="#999999" stroke-width="1.0003" stroke-miterlimit="10" d="M329.6,149.2c-2.8,0-5.3,2.5-6.1,5.9
					c-0.8,3.8,0.9,7.5,4,8.2c0.3,0.1,0.6,0.1,1,0.1c2.8,0,5.3-2.5,6.1-5.9c0.4-1.9,0.2-3.7-0.5-5.3c-0.8-1.5-2-2.6-3.4-2.9
					C330.4,149.2,329.9,149.2,329.6,149.2L329.6,149.2"/>
			</g>
			
				<ellipse transform="matrix(0.2139 -0.9769 0.9769 0.2139 106.2539 444.2282)" fill="#999999" cx="329.1" cy="156.1" rx="3.4" ry="2.7"/>
		</g>
	</g>
	<g>
		<g>
			<path fill="none" stroke="#FFF9ED" stroke-width="1.0003" stroke-miterlimit="10" d="M409,337.2"/>
			<path fill="none" stroke="#FFF9ED" stroke-width="1.0003" stroke-miterlimit="10" d="M268.2,337.2"/>
			<g opacity="0.3">
				<line fill="none" stroke="#999999" stroke-width="1.0003" x1="260" y1="298" x2="260" y2="392.7"/>
				<line fill="none" stroke="#999999" stroke-width="1.0003" x1="282.1" y1="298" x2="282.1" y2="392.7"/>
				<line fill="none" stroke="#999999" stroke-width="1.0003" x1="304.1" y1="298" x2="304.1" y2="392.7"/>
				<line fill="none" stroke="#999999" stroke-width="1.0003" x1="249" y1="298" x2="249" y2="392.7"/>
				<line fill="none" stroke="#999999" stroke-width="1.0003" x1="271.1" y1="298" x2="271.1" y2="392.7"/>
				<line fill="none" stroke="#999999" stroke-width="1.0003" x1="293.1" y1="298" x2="293.1" y2="392.7"/>
				<line fill="none" stroke="#999999" stroke-width="1.0003" x1="315.1" y1="298" x2="315.1" y2="392.7"/>
				<line fill="none" stroke="#999999" stroke-width="1.0003" x1="238.5" y1="366.9" x2="325.3" y2="366.9"/>
				<line fill="none" stroke="#999999" stroke-width="1.0003" x1="238.5" y1="349.7" x2="325.3" y2="349.7"/>
				<line fill="none" stroke="#999999" stroke-width="1.0003" x1="238.5" y1="332.5" x2="325.3" y2="332.5"/>
				<line fill="none" stroke="#999999" stroke-width="1.0003" x1="238.5" y1="315.2" x2="325.3" y2="315.2"/>
				<line fill="none" stroke="#999999" stroke-width="1.0003" x1="238.5" y1="306.6" x2="325.3" y2="306.6"/>
				<line fill="none" stroke="#999999" stroke-width="1.0003" x1="238.5" y1="358.3" x2="325.3" y2="358.3"/>
				<line fill="none" stroke="#999999" stroke-width="1.0003" x1="238.5" y1="375.5" x2="325.3" y2="375.5"/>
				<line fill="none" stroke="#999999" stroke-width="1.0003" x1="238.5" y1="384.1" x2="325.3" y2="384.1"/>
				<line fill="none" stroke="#999999" stroke-width="1.0003" x1="238.5" y1="392.7" x2="325.3" y2="392.7"/>
				<line fill="none" stroke="#999999" stroke-width="1.0003" x1="238.5" y1="341.1" x2="325.3" y2="341.1"/>
				<line fill="none" stroke="#999999" stroke-width="1.0003" x1="238.5" y1="323.9" x2="325.3" y2="323.9"/>
				<line fill="none" stroke="#999999" stroke-width="1.0003" x1="238.5" y1="298" x2="238.5" y2="392.7"/>
				<line fill="none" stroke="#999999" stroke-width="1.0003" x1="325.3" y1="298" x2="325.3" y2="392.7"/>
				<line fill="none" stroke="#999999" stroke-width="1.0003" x1="238.5" y1="298" x2="325.3" y2="298"/>
			</g>
			<rect x="238.1" y="395.5" fill="#FFFFFF" stroke="#999999" stroke-width="1.0003" width="236.6" height="55.9"/>
			<g>
				<g>
					<rect x="324.9" y="395.5" fill="#999999" width="0.9" height="55.9"/>
				</g>
				<g>
					<rect x="306.3" y="428.4" fill="#999999" width="19.2" height="0.9"/>
				</g>
				<g>
					<rect x="306.3" y="411.8" fill="#999999" width="19.2" height="0.9"/>
				</g>
			</g>
			<polygon fill="#FFFFFF" stroke="#999999" stroke-width="1.0003" points="294.3,392.3 265,392.3 236.8,392.3 236.8,395.8 
				265,395.8 294.3,395.8 474.9,395.8 474.9,392.3 			"/>
			<g>
				<rect x="255.5" y="392.2" fill="#FFFFFF" stroke="#999999" stroke-width="1.0003" width="54.4" height="59.2"/>
				<rect x="266.3" y="420" fill="#FFFFFF" stroke="#999999" stroke-width="1.0003" width="33.3" height="23.7"/>
				<rect x="255.5" y="411.8" fill="#999999" width="54.4" height="0.9"/>
				<rect x="255.5" y="405.9" fill="#999999" width="54.4" height="0.9"/>
				<g>
					<path fill="#999999" d="M300.3,401.4c1.1,0,2-0.9,2-2s-0.9-2-2-2c-1.1,0-2,0.9-2,2C298.3,400.5,299.2,401.4,300.3,401.4z
						 M300.3,398.3c0.6,0,1.1,0.5,1.1,1.1c0,0.6-0.5,1.1-1.1,1.1c-0.6,0-1.1-0.5-1.1-1.1C299.2,398.8,299.7,398.3,300.3,398.3z"/>
				</g>
				<g>
					<path fill="#999999" d="M291.8,401.4c1.1,0,2-0.9,2-2s-0.9-2-2-2c-1.1,0-2,0.9-2,2C289.8,400.5,290.7,401.4,291.8,401.4z
						 M291.8,398.3c0.6,0,1.1,0.5,1.1,1.1c0,0.6-0.5,1.1-1.1,1.1c-0.6,0-1.1-0.5-1.1-1.1C290.7,398.8,291.2,398.3,291.8,398.3z"/>
				</g>
				<g>
					<path fill="#999999" d="M283.3,401.4c1.1,0,2-0.9,2-2s-0.9-2-2-2c-1.1,0-2,0.9-2,2C281.3,400.5,282.2,401.4,283.3,401.4z
						 M283.3,398.3c0.6,0,1.1,0.5,1.1,1.1c0,0.6-0.5,1.1-1.1,1.1c-0.6,0-1.1-0.5-1.1-1.1C282.2,398.8,282.7,398.3,283.3,398.3z"/>
				</g>
				<g>
					<path fill="#999999" d="M274.8,401.4c1.1,0,2-0.9,2-2s-0.9-2-2-2c-1.1,0-2,0.9-2,2C272.8,400.5,273.7,401.4,274.8,401.4z
						 M274.8,398.3c0.6,0,1.1,0.5,1.1,1.1c0,0.6-0.5,1.1-1.1,1.1c-0.6,0-1.1-0.5-1.1-1.1C273.7,398.8,274.2,398.3,274.8,398.3z"/>
				</g>
				<g>
					<path fill="#999999" d="M266.3,401.4c1.1,0,2-0.9,2-2s-0.9-2-2-2c-1.1,0-2,0.9-2,2C264.3,400.5,265.2,401.4,266.3,401.4z
						 M266.3,398.3c0.6,0,1.1,0.5,1.1,1.1c0,0.6-0.5,1.1-1.1,1.1c-0.6,0-1.1-0.5-1.1-1.1C265.2,398.8,265.7,398.3,266.3,398.3z"/>
				</g>
			</g>
			<g>
				<rect x="395.4" y="319.7" fill="#FFFFFF" stroke="#999999" stroke-width="1.0003" width="59" height="131.8"/>
				<g>
					<rect x="395.4" y="395.4" fill="#999999" width="59" height="1.1"/>
				</g>
				<g>
					<rect x="402" y="333.4" fill="#FFFFFF" stroke="#999999" stroke-width="1.0003" width="2" height="44.1"/>
				</g>
				<g>
					<rect x="406.6" y="403.6" fill="#FFFFFF" stroke="#999999" stroke-width="1.0003" width="37.9" height="2"/>
				</g>
			</g>
			<g>
				<g>
					<g>
						<path fill="#FFFFFF" stroke="#999999" stroke-width="1.0003" d="M309.7,341.3H256l-0.2-1l22.4-20.1c0.1-0.1,0-22.5,0-22.5h9.4
							c0,0-0.1,22.4,0,22.5l22.4,20.1L309.7,341.3z"/>
					</g>
				</g>
				<polygon fill="#FFFFFF" stroke="#999999" stroke-width="1.0003" points="266.3,341.3 299.5,341.3 285.3,320.2 280.5,320.2 				
					"/>
			</g>
			<g>
				<g>
					<path fill="#FFFFFF" stroke="#999999" stroke-width="1.0003" d="M360.4,392.4h-2.8v-17c0-5.1,4.1-9.2,9.2-9.2s9.2,4.1,9.2,9.2
						h-2.9c0-3.5-2.9-6.3-6.4-6.3c-3.5,0-6.4,2.8-6.4,6.3L360.4,392.4L360.4,392.4z"/>
				</g>
				<polygon fill="#FFFFFF" stroke="#999999" stroke-width="1.0003" points="370.9,392.4 367.3,392.4 366.3,387.8 371.9,387.8 				
					"/>
				<polygon fill="#FFFFFF" stroke="#999999" stroke-width="1.0003" points="350.9,392.4 347.4,392.4 346.4,387.8 351.9,387.8 				
					"/>
			</g>
			<line fill="none" stroke="#999999" stroke-width="1.0003" x1="287.6" y1="320.2" x2="278.2" y2="320.2"/>
		</g>
		<path fill="none" stroke="#999999" stroke-width="1.0003" stroke-miterlimit="10" d="M365.7,303.3h-10.2c-1.4,0-2.6-1.2-2.6-2.6
			v-3.4h15.4v3.4C368.3,302.2,367.1,303.3,365.7,303.3z"/>
	</g>
	<g>
		<g>
			<polygon fill="none" stroke="#999999" stroke-width="1.0003" stroke-miterlimit="10" points="234,532.7 233.7,532.7 191,532.7 
				191,470.2 233.7,470.2 234,470.2 276.8,470.2 276.8,532.7 			"/>
			<g>
				
					<rect x="195.1" y="474.3" fill="none" stroke="#999999" stroke-width="1.0003" stroke-miterlimit="10" width="37.5" height="54.3"/>
				
					<rect x="235.2" y="474.3" fill="none" stroke="#999999" stroke-width="1.0003" stroke-miterlimit="10" width="37.5" height="54.3"/>
			</g>
		</g>
		<g>
			<g>
				
					<line opacity="0.3" fill="none" stroke="#999999" stroke-width="1.0003" enable-background="new    " x1="245" y1="505.7" x2="254.4" y2="513.4"/>
				
					<line opacity="0.3" fill="none" stroke="#999999" stroke-width="1.0003" enable-background="new    " x1="244.5" y1="497.2" x2="265" y2="513.8"/>
			</g>
			<g>
				
					<line opacity="0.3" fill="none" stroke="#999999" stroke-width="1.0003" enable-background="new    " x1="204.8" y1="505.7" x2="214.2" y2="513.4"/>
				
					<line opacity="0.3" fill="none" stroke="#999999" stroke-width="1.0003" enable-background="new    " x1="204.3" y1="497.2" x2="224.8" y2="513.8"/>
			</g>
		</g>
	</g>
	<g>
		<g>
			<path fill="#FFFFFF" stroke="#999999" stroke-width="1.0003" d="M395.6,554.8c-3,1.1-21.1,31.6-17.9,31.8l12,2.5h207.6
				c16-9.9,14.6-21.6,13.3-34.8C550.1,554.3,397.8,553.9,395.6,554.8L395.6,554.8z"/>
			<path fill="#FFFFFF" stroke="#999999" stroke-width="1.0003" d="M588.7,514.5h-69.3c-1.9,0-3.5-1.6-3.5-3.5l0,0
				c0-1.9,1.6-3.5,3.5-3.5h69.3c1.9,0,3.5,1.6,3.5,3.5l0,0C592.1,513,590.6,514.5,588.7,514.5L588.7,514.5z"/>
			<path fill="#FFFFFF" stroke="#999999" stroke-width="1.0003" d="M570.1,562.7c-12.1,0-21.9,9.8-21.9,21.8
				c0,12.1,9.8,21.8,21.9,21.8c12.1,0,21.9-9.8,21.9-21.8C591.9,572.5,582.1,562.7,570.1,562.7L570.1,562.7z"/>
			<g>
				<path fill="#FFFFFF" d="M570.1,599.9c-8.5,0-15.3-6.9-15.3-15.3c0-8.5,6.9-15.3,15.3-15.3c8.4,0,15.3,6.9,15.3,15.3
					C585.4,593,578.5,599.9,570.1,599.9z M563.2,597.7l0.6,0.3c2,0.9,4.1,1.4,6.4,1.4c2.3,0,4.5-0.5,6.6-1.5l0.5-0.3l-6.6-8.7
					c2.2-0.3,3.9-2.1,3.9-4.3c0-2.4-2-4.4-4.4-4.4c-2.4,0-4.4,2-4.4,4.4c0,0.3,0,0.6,0.1,1l-10.4-3.3l-0.1,0.6
					c-0.1,0.6-0.1,1.2-0.1,1.8c0,3.5,1.2,6.9,3.5,9.5l0.4,0.5l6.7-8.9c0.5,1.8,2.1,3.1,4,3.2L563.2,597.7z M574.4,585.5l6.8,8.9
					l0.4-0.5c2.2-2.6,3.3-6,3.3-9.4c0-0.6,0-1.2-0.1-1.8l-0.1-0.6L574.4,585.5z M572.6,580.7l10.5-3.4l-0.3-0.5
					c-2.1-3.5-5.6-5.9-9.5-6.8l-0.6-0.1L572.6,580.7L572.6,580.7z M566.9,570c-3.9,0.8-7.4,3.3-9.5,6.7l-0.3,0.5l10.4,3.4v-10.7
					L566.9,570z"/>
				<path fill="#999999" d="M570.1,569.7c0.7,0,1.4,0,2,0.1v0.7v9.5v0.1c-0.6-0.3-1.3-0.5-2-0.5s-1.4,0.2-2,0.5V580v-9.5v-0.7
					C568.7,569.7,569.4,569.7,570.1,569.7 M556.9,577.8l0.7,0.2l9.2,3l0,0c-1,0.9-1.6,2.2-1.6,3.6c0,0.1,0,0.2,0,0.2l-9.1-2.9
					l-0.6-0.2C555.8,580.3,556.2,579,556.9,577.8 M583.3,577.8c0.6,1.2,1.1,2.5,1.3,3.9l-0.6,0.2l-9.1,2.9c0-0.1,0-0.2,0-0.3
					c0-1.4-0.6-2.7-1.5-3.5l0,0l9.2-3L583.3,577.8 M574.5,586.5l5.8,7.7l0.4,0.6c-0.9,1-2,1.8-3.2,2.5l-0.4-0.5l-5.7-7.6
					C572.8,588.8,574,587.8,574.5,586.5 M565.7,586.7c0.6,1.3,1.8,2.2,3.2,2.6l-5.8,7.6l-0.4,0.5c-1.2-0.7-2.3-1.5-3.2-2.5l0.4-0.6
					L565.7,586.7 M570.1,568.7c-8.7,0-15.8,7.1-15.8,15.8s7.1,15.8,15.8,15.8s15.8-7.1,15.8-15.8
					C585.9,575.8,578.8,568.7,570.1,568.7L570.1,568.7z M573.1,580v-9.5c3.9,0.8,7.2,3.3,9.2,6.5L573.1,580L573.1,580z M567,580
					l-9.2-3c2-3.3,5.3-5.7,9.2-6.5V580L567,580z M570.1,588.4c-2.1,0-3.9-1.7-3.9-3.9c0-2.1,1.7-3.9,3.9-3.9c2.1,0,3.9,1.7,3.9,3.9
					C573.9,586.7,572.2,588.4,570.1,588.4L570.1,588.4z M559.1,593.7c-2.1-2.5-3.4-5.7-3.4-9.2c0-0.6,0-1.2,0.1-1.7l9.3,3
					L559.1,593.7L559.1,593.7z M581.2,593.6l-5.9-7.8l9.1-2.9c0.1,0.6,0.1,1.1,0.1,1.7C584.4,588,583.2,591.1,581.2,593.6
					L581.2,593.6z M570.1,598.8c-2.2,0-4.3-0.5-6.1-1.4l6.3-8.3l6.2,8.2C574.5,598.3,572.4,598.8,570.1,598.8L570.1,598.8z"/>
			</g>
			<path fill="#FFFFFF" stroke="#999999" stroke-width="1.0003" stroke-linecap="round" stroke-linejoin="round" d="M588.6,511.1
				c-35.8,0-66.3-0.2-102.2-0.2c-3.7,0-7.4,0-11.1,0c-1,0-2.5,0.2-3.9,1.4l-22.5,19c-4.4,3.4-7.6,6.1-11.7,6.3l-42.2,2.3
				c-2.6,0.2-5.5,0.5-7.9,1.6c-4.3,1.9-6.3,8.7-6.3,12.3c0,3.4,0,6.8,0,10.2c0,2.3-1.5,1.8-3.7,2.7c-3,1.1-3.6,20.8-0.4,21
				c5.8,0.7,7.2,1.2,13.1,1.4c-0.2-1.5-0.4-3-0.4-4.5c0-15,12.2-27.1,27.1-27.1c15,0,27.1,12.1,27.1,27.1c0,1.6-0.1,3-0.4,4.5h99.5
				c-0.2-1.4-0.3-3.1-0.3-4.5c0-15.2,12.3-27.5,27.6-27.5c15.2,0,27.6,12.3,27.6,27.5c0,1.2-0.1,3.4-0.2,4.5
				c30-16.7,20.4-41.1,9.8-67.4C602.9,511.3,599.1,511.1,588.6,511.1L588.6,511.1z"/>
			<path fill="#FFFFFF" stroke="#999999" stroke-width="1.0003" d="M416.9,562.7c-12.1,0-21.9,9.8-21.9,21.8
				c0,12.1,9.8,21.8,21.9,21.8s21.9-9.8,21.9-21.8S429,562.7,416.9,562.7L416.9,562.7z"/>
			<g>
				<path fill="#FFFFFF" d="M416.9,599.9c-8.5,0-15.3-6.9-15.3-15.3c0-8.5,6.9-15.3,15.3-15.3c8.4,0,15.3,6.9,15.3,15.3
					C432.3,593,425.4,599.9,416.9,599.9z M410,597.7l0.6,0.3c2,0.9,4.1,1.4,6.4,1.4s4.5-0.5,6.6-1.5l0.5-0.3l-6.6-8.7
					c2.2-0.3,3.9-2.1,3.9-4.3c0-2.4-2-4.4-4.4-4.4s-4.4,2-4.4,4.4c0,0.3,0,0.6,0.1,1l-10.4-3.3l-0.1,0.6c-0.1,0.6-0.1,1.2-0.1,1.8
					c0,3.5,1.2,6.9,3.5,9.5l0.4,0.5l6.7-8.9c0.5,1.8,2.1,3.1,4,3.2L410,597.7z M421.3,585.5l6.8,8.9l0.4-0.5c2.2-2.6,3.3-6,3.3-9.4
					c0-0.6,0-1.2-0.1-1.8l-0.1-0.6L421.3,585.5z M419.5,580.7l10.5-3.4l-0.3-0.5c-2.1-3.5-5.6-5.9-9.5-6.8l-0.6-0.1L419.5,580.7
					L419.5,580.7z M413.8,570c-3.9,0.8-7.4,3.3-9.5,6.7l-0.3,0.5l10.4,3.4v-10.7L413.8,570z"/>
				<path fill="#999999" d="M416.9,569.7c0.7,0,1.4,0,2,0.1v0.7v9.5v0.1c-0.6-0.3-1.3-0.5-2-0.5c-0.7,0-1.4,0.2-2,0.5V580v-9.5v-0.7
					C415.6,569.7,416.3,569.7,416.9,569.7 M403.7,577.8l0.7,0.2l9.2,3l0,0c-1,0.9-1.6,2.2-1.6,3.6c0,0.1,0,0.2,0,0.2l-9.1-2.9
					l-0.6-0.2C402.7,580.3,403.1,579,403.7,577.8 M430.2,577.8c0.6,1.2,1.1,2.5,1.3,3.9l-0.6,0.2l-9.1,2.9c0-0.1,0-0.2,0-0.3
					c0-1.4-0.6-2.7-1.5-3.5l0,0l9.2-3L430.2,577.8 M421.4,586.5l5.8,7.7l0.4,0.6c-0.9,1-2,1.8-3.2,2.5l-0.4-0.5l-5.7-7.6
					C419.7,588.8,420.8,587.8,421.4,586.5 M412.6,586.7c0.6,1.3,1.8,2.2,3.2,2.6l-5.8,7.6l-0.4,0.5c-1.2-0.7-2.3-1.5-3.2-2.5
					l0.4-0.6L412.6,586.7 M416.9,568.7c-8.7,0-15.8,7.1-15.8,15.8s7.1,15.8,15.8,15.8c8.7,0,15.8-7.1,15.8-15.8
					C432.8,575.8,425.7,568.7,416.9,568.7L416.9,568.7z M420,580v-9.5c3.9,0.8,7.2,3.3,9.2,6.5L420,580L420,580z M413.9,580l-9.2-3
					c2-3.3,5.3-5.7,9.2-6.5V580L413.9,580z M416.9,588.4c-2.1,0-3.9-1.7-3.9-3.9c0-2.1,1.7-3.9,3.9-3.9c2.1,0,3.9,1.7,3.9,3.9
					S419.1,588.4,416.9,588.4L416.9,588.4z M406,593.7c-2.1-2.5-3.4-5.7-3.4-9.2c0-0.6,0-1.2,0.1-1.7l9.3,3L406,593.7L406,593.7z
					 M428.1,593.6l-5.9-7.8l9.1-2.9c0.1,0.6,0.1,1.1,0.1,1.7C431.3,588,430.1,591.1,428.1,593.6L428.1,593.6z M416.9,598.8
					c-2.2,0-4.3-0.5-6.1-1.4l6.3-8.3l6.2,8.2C421.4,598.3,419.2,598.8,416.9,598.8L416.9,598.8z"/>
			</g>
			<path fill="#FFFFFF" stroke="#999999" stroke-width="1.0003" d="M548.2,514.9h-33.5c-1.7,0-3.1,1.4-3.1,3v19c0,1.7,1.4,3,3.1,3
				h33.5c1.7,0,3.1-1.4,3.1-3V518C551.3,516.3,549.9,514.9,548.2,514.9L548.2,514.9z"/>
			<path fill="#FFFFFF" stroke="#999999" stroke-width="1.0003" d="M586.9,514.9h-23.2c-1.7,0-3.1,1.4-3.1,3v19c0,1.7,1.4,3,3.1,3
				H593c1.7,0,3.6-1.5,3-3l-6.1-18.9C589.4,516.4,588.5,514.9,586.9,514.9L586.9,514.9z"/>
			<path fill="#FFFFFF" stroke="#999999" stroke-width="1.0003" d="M477.9,514.9h23.2c1.7,0,3.1,1.4,3.1,3v19c0,1.7-1.4,3-3.1,3
				h-47.8c-5,0-3.8-2.5-1.7-4.3l20.8-17.3C473.7,517.3,476.2,514.9,477.9,514.9L477.9,514.9z"/>
			<path fill="#999999" d="M549.8,545.4h-12.2c-0.8,0-1.4,0.6-1.4,1.4v0.4c0,0.8,0.6,1.4,1.4,1.4h12.2c0.8,0,1.4-0.6,1.4-1.4v-0.4
				C551.3,546,550.6,545.4,549.8,545.4L549.8,545.4z"/>
			<path fill="#FFFFFF" stroke="#999999" stroke-width="1.0003" stroke-linecap="round" stroke-linejoin="round" d="M592.2,568.2
				H616c-2.5,7.3-8.1,15-18.6,20.9c0.1-1.1,0.2-3.4,0.2-4.5c0-0.2,0-0.4,0-0.7v-0.1c0-0.2,0-0.4,0-0.7l0,0c0-0.2,0-0.4,0-0.7v-0.1
				c0-0.2,0-0.4-0.1-0.6l0,0l0,0c0-0.2,0-0.4-0.1-0.6V581c0-0.2-0.1-0.4-0.1-0.6l0,0l0,0c0-0.2-0.1-0.4-0.1-0.6v-0.1
				c0-0.2-0.1-0.4-0.1-0.6V579c0-0.2-0.1-0.4-0.1-0.6v-0.1c0-0.2-0.1-0.4-0.1-0.5v-0.1c0-0.2-0.1-0.4-0.2-0.6V577
				c0-0.2-0.1-0.3-0.1-0.5v-0.1c-0.1-0.2-0.1-0.3-0.2-0.5l-0.1-0.2c-0.1-0.2-0.1-0.3-0.2-0.5l-0.1-0.1c-0.1-0.2-0.1-0.3-0.2-0.5
				l-0.1-0.1c-0.1-0.1-0.1-0.3-0.2-0.4l-0.1-0.2c-0.1-0.2-0.1-0.3-0.2-0.5l-0.1-0.2c-0.1-0.1-0.1-0.3-0.2-0.4l-0.1-0.2
				c-0.1-0.1-0.1-0.3-0.2-0.4l-0.1-0.2c-0.1-0.1-0.1-0.2-0.2-0.4l-0.1-0.2c-0.1-0.1-0.1-0.2-0.2-0.4l-0.2-0.3l-0.2-0.3l-0.1-0.2
				c-0.1-0.1-0.1-0.2-0.2-0.3l-0.2-0.3c-0.1-0.1-0.1-0.2-0.2-0.3l-0.2-0.2l-0.2-0.3l-0.2-0.3L592.2,568.2L592.2,568.2z"/>
			<path fill="#FFFFFF" stroke="#999999" stroke-width="1.0003" d="M438.2,568.2h109.7c-3.4,4.6-5.4,10.2-5.4,16.4
				c0,1.5,0.1,3.1,0.3,4.5h-99.5c0.3-1.5,0.4-3,0.4-4.5C443.7,578.4,441.6,572.7,438.2,568.2L438.2,568.2z"/>
			<path fill="#FFFFFF" stroke="#999999" stroke-width="1.0003" d="M375.9,568.2h19c-3.4,4.5-5.5,10.2-5.5,16.4
				c0,1.5,0.1,3.1,0.4,4.5c-5.9-0.3-7.3-0.8-13.1-1.4C373.9,587.5,373.9,573,375.9,568.2L375.9,568.2z"/>
			<path fill="#999999" d="M500.9,545.4h-12.2c-0.8,0-1.4,0.6-1.4,1.4v0.4c0,0.8,0.6,1.4,1.4,1.4h12.2c0.8,0,1.4-0.6,1.4-1.4v-0.4
				C502.4,546,501.7,545.4,500.9,545.4L500.9,545.4z"/>
			<path fill="none" stroke="#999999" stroke-width="1.0003" stroke-miterlimit="10" d="M579.8,543.9c-2.4,0-4.4,2-4.4,4.4
				c0,2.4,2,4.4,4.4,4.4c2.4,0,4.4-2,4.4-4.4C584.2,545.8,582.2,543.9,579.8,543.9L579.8,543.9z"/>
			<path fill="#FFFFFF" stroke="#999999" stroke-width="1.0003" d="M613.8,539.1H608c-2,0-3.5,1.6-3.5,3.5v14.2c0,2,1.6,3.5,3.5,3.5
				h9.4C617.9,553.7,616.3,546.6,613.8,539.1L613.8,539.1z"/>
			<rect x="380.7" y="557.4" fill="#FFFFFF" stroke="#999999" stroke-width="1.0003" width="9" height="5.7"/>
			<path fill="#FFFFFF" stroke="#999999" stroke-width="1.0003" d="M375.9,571.6c-0.3,0-0.7,0.2-1,0.4c-0.5,3.6-0.6,7.4-0.2,10.9
				c0.4,0.4,0.8,0.7,1.2,0.7c1.4,0,2.5-2.7,2.5-6S377.3,571.6,375.9,571.6L375.9,571.6z"/>
			<path fill="#FFFFFF" stroke="#999999" stroke-width="1.0003" d="M380.7,554.6c0,0.8,6.3,1.9,7.4-3.8c1-5.6-2.7-8.3-3.6-7.4
				C384.5,543.4,380.6,547.6,380.7,554.6z"/>
		</g>
		<line fill="none" stroke="#999999" stroke-width="1.0003" x1="507.6" y1="511.3" x2="507.6" y2="588.9"/>
		<line fill="none" stroke="#999999" stroke-width="1.0003" x1="556" y1="511.3" x2="556" y2="561"/>
	</g>
	<g>
		
			<path fill="#FFFFFF" stroke="#999999" stroke-width="1.0003" stroke-linecap="round" stroke-linejoin="round" stroke-miterlimit="10" d="
			M75.2,33.4h-4.9v6.2h4.9V33.4z"/>
	</g>
	<g>
		
			<path fill="#FFFFFF" stroke="#999999" stroke-width="1.0003" stroke-linecap="round" stroke-linejoin="round" stroke-miterlimit="10" d="
			M577.7,158.5h-4.9v6.2h4.9V158.5z"/>
	</g>
	<g>
		<g>
			<g>
				<polygon fill="#FFFFFF" stroke="#999999" stroke-width="1.0003" stroke-miterlimit="10" points="392,217.5 391.8,217.5 
					354,217.5 354,171.2 391.8,171.2 392,171.2 429.9,171.2 429.9,217.5 				"/>
				<g>
					
						<rect x="357.6" y="175.9" fill="none" stroke="#999999" stroke-width="1.0003" stroke-miterlimit="10" width="33.1" height="36.8"/>
					
						<rect x="393.1" y="175.9" fill="none" stroke="#999999" stroke-width="1.0003" stroke-miterlimit="10" width="33.1" height="36.8"/>
				</g>
			</g>
			<g>
				
					<line opacity="0.3" fill="none" stroke="#999999" stroke-width="1.0003" enable-background="new    " x1="403.5" y1="193" x2="411.8" y2="201.8"/>
				
					<line opacity="0.3" fill="none" stroke="#999999" stroke-width="1.0003" enable-background="new    " x1="403.1" y1="183.2" x2="421.2" y2="202.2"/>
			</g>
			<g>
				
					<line opacity="0.3" fill="none" stroke="#999999" stroke-width="1.0003" enable-background="new    " x1="368" y1="193" x2="376.3" y2="201.8"/>
				
					<line opacity="0.3" fill="none" stroke="#999999" stroke-width="1.0003" enable-background="new    " x1="367.5" y1="183.2" x2="385.7" y2="202.2"/>
			</g>
		</g>
		<g>
			<g>
				<path fill="#999999" d="M560.3,225.3L560.3,225.3l-1.2,0.1v-0.1c0-6.1,5.5-11.1,12.3-11.1c6.8,0,12.3,5,12.3,11.1v17.1h-1.2
					v-17.1c0-5.5-5-10-11.1-10C565.3,215.3,560.3,219.8,560.3,225.3z"/>
				<path fill="#999999" d="M568.5,228.7c-1.7-1.7-5.1-2.8-8.9-2.8c-3.8,0-7.2,1.2-8.9,2.8h-1.6c1.6-2.3,5.6-4,10.5-4
					c4.9,0,8.9,1.6,10.5,4H568.5z"/>
				<rect x="559.5" y="225.8" fill="#999999" width="0.4" height="4.6"/>
				<rect x="569" y="228.5" fill="#999999" width="0.4" height="4.6"/>
				<rect x="549.8" y="228.5" fill="#999999" width="0.4" height="4.6"/>
				<g>
					<ellipse fill="#999999" cx="550" cy="233.3" rx="1.2" ry="1.1"/>
					<g>
						<ellipse fill="#999999" cx="549.3" cy="232.6" rx="0.6" ry="0.5"/>
						<ellipse fill="#999999" cx="550.7" cy="232.6" rx="0.6" ry="0.5"/>
					</g>
					<ellipse fill="#999999" cx="550" cy="235.5" rx="1.3" ry="1.5"/>
					<g>
						<ellipse fill="#999999" cx="548.5" cy="235.1" rx="0.5" ry="0.4"/>
						<ellipse fill="#999999" cx="551.5" cy="235.1" rx="0.5" ry="0.4"/>
					</g>
					<g>
						<ellipse fill="#999999" cx="549" cy="236.9" rx="0.5" ry="0.5"/>
						<ellipse fill="#999999" cx="551.1" cy="236.9" rx="0.5" ry="0.5"/>
					</g>
				</g>
				<g>
					<ellipse fill="#999999" cx="559.8" cy="231.3" rx="1.2" ry="1.1"/>
					<g>
						<ellipse fill="#999999" cx="559.1" cy="230.6" rx="0.6" ry="0.5"/>
						<ellipse fill="#999999" cx="560.5" cy="230.6" rx="0.6" ry="0.5"/>
					</g>
					<ellipse fill="#999999" cx="559.8" cy="233.5" rx="1.3" ry="1.5"/>
					<g>
						<ellipse fill="#999999" cx="558.3" cy="233.1" rx="0.5" ry="0.4"/>
						<ellipse fill="#999999" cx="561.2" cy="233.1" rx="0.5" ry="0.4"/>
					</g>
					<g>
						<ellipse fill="#999999" cx="558.7" cy="234.9" rx="0.5" ry="0.5"/>
						<ellipse fill="#999999" cx="560.8" cy="234.9" rx="0.5" ry="0.5"/>
					</g>
				</g>
				<g>
					<ellipse fill="#999999" cx="569.2" cy="233.3" rx="1.2" ry="1.1"/>
					<g>
						<ellipse fill="#999999" cx="568.5" cy="232.6" rx="0.6" ry="0.5"/>
						<ellipse fill="#999999" cx="569.9" cy="232.6" rx="0.6" ry="0.5"/>
					</g>
					<ellipse fill="#999999" cx="569.2" cy="235.5" rx="1.3" ry="1.5"/>
					<g>
						<ellipse fill="#999999" cx="567.7" cy="235.1" rx="0.5" ry="0.4"/>
						<ellipse fill="#999999" cx="570.7" cy="235.1" rx="0.5" ry="0.4"/>
					</g>
					<g>
						<ellipse fill="#999999" cx="568.1" cy="236.9" rx="0.5" ry="0.5"/>
						<ellipse fill="#999999" cx="570.2" cy="236.9" rx="0.5" ry="0.5"/>
					</g>
				</g>
			</g>
			<g>
				<path fill="#FFFFFF" stroke="#999999" stroke-width="1.0003" d="M514.1,289h83.9c0.8,0,1.4-0.6,1.4-1.4v-9.5
					c0-0.8-0.6-1.4-1.4-1.4h-83.9c-0.8,0-1.4,0.6-1.4,1.4v9.5C512.7,288.3,513.4,289,514.1,289z"/>
				<g>
					<g>
						<path fill="#FFFFFF" d="M600.6,235.9c-1.2,0-2.2,0.9-2.2,1.9v3.6h-84.6v-3.6c0-1.1-1-1.9-2.2-1.9s-2.2,0.9-2.2,1.9v53h1.7
							l0.7,5.8h2.6l0.7-5.8h81.7l0.7,5.8h2.6l0.7-5.8h1.7v-53C602.8,236.8,601.8,235.9,600.6,235.9z M598.5,245.4V287H592v-41.6
							L598.5,245.4L598.5,245.4z M589.8,245.4V287h-6.5v-41.6L589.8,245.4L589.8,245.4z M581.1,245.4V287h-6.5v-41.6L581.1,245.4
							L581.1,245.4z M572.4,245.4V287h-6.5v-41.6L572.4,245.4L572.4,245.4z M563.8,245.4V287h-6.5v-41.6L563.8,245.4L563.8,245.4z
							 M555.1,245.4V287h-6.5v-41.6L555.1,245.4L555.1,245.4z M546.4,245.4V287h-6.5v-41.6L546.4,245.4L546.4,245.4z M537.7,245.4
							V287h-6.5v-41.6L537.7,245.4L537.7,245.4z M529,245.4V287h-6.5v-41.6L529,245.4L529,245.4z M520.3,245.4V287h-6.5v-41.6
							L520.3,245.4L520.3,245.4z"/>
					</g>
					<g>
						<path fill="none" stroke="#999999" stroke-width="1.0003" d="M600.6,235.9c-1.2,0-2.2,0.9-2.2,1.9v3.6h-84.6v-3.6
							c0-1.1-1-1.9-2.2-1.9s-2.2,0.9-2.2,1.9v53h1.7l0.7,5.8h2.6l0.7-5.8h81.7l0.7,5.8h2.6l0.7-5.8h1.7v-53
							C602.8,236.8,601.8,235.9,600.6,235.9z M598.5,245.4V287H592v-41.6L598.5,245.4L598.5,245.4z M589.8,245.4V287h-6.5v-41.6
							L589.8,245.4L589.8,245.4z M581.1,245.4V287h-6.5v-41.6L581.1,245.4L581.1,245.4z M572.4,245.4V287h-6.5v-41.6L572.4,245.4
							L572.4,245.4z M563.8,245.4V287h-6.5v-41.6L563.8,245.4L563.8,245.4z M555.1,245.4V287h-6.5v-41.6L555.1,245.4L555.1,245.4z
							 M546.4,245.4V287h-6.5v-41.6L546.4,245.4L546.4,245.4z M537.7,245.4V287h-6.5v-41.6L537.7,245.4L537.7,245.4z M529,245.4V287
							h-6.5v-41.6L529,245.4L529,245.4z M520.3,245.4V287h-6.5v-41.6L520.3,245.4L520.3,245.4z"/>
					</g>
				</g>
			</g>
		</g>
		<g>
			<rect x="472.2" y="192.9" fill="#FFFFFF" stroke="#999999" stroke-width="1.0003" width="51.7" height="2.7"/>
			<rect x="472.2" y="211.5" fill="#FFFFFF" stroke="#999999" stroke-width="1.0003" width="51.7" height="2.7"/>
			<g>
				<g>
					<rect x="490.2" y="206.2" fill="#FFFFFF" stroke="#999999" stroke-width="1.0003" width="24.1" height="4.5"/>
					<rect x="491.2" y="210.7" fill="#FFFFFF" stroke="#999999" stroke-width="1.0003" width="22.1" height="0.9"/>
				</g>
				<g>
					<rect x="493.4" y="200.8" fill="#FFFFFF" stroke="#999999" stroke-width="1.0003" width="18.2" height="4.5"/>
					<rect x="494.2" y="205.3" fill="#FFFFFF" stroke="#999999" stroke-width="1.0003" width="16.7" height="0.9"/>
				</g>
			</g>
			<g>
				<g>
					<path fill="#FFFFFF" d="M488.8,192.1v-13.7h10.5v13.7H488.8z M497.3,190v-9.6h-6.4v9.6H497.3z"/>
					<path fill="#999999" d="M498.8,178.9v12.7h-9.5v-12.7H498.8 M490.3,190.5h7.4v-10.6h-7.4V190.5 M499.8,177.9h-1h-9.5h-1v1v12.7
						v1h1h9.5h1v-1v-12.7V177.9L499.8,177.9z M491.3,180.9h5.4v8.6h-5.4V180.9L491.3,180.9z"/>
				</g>
			</g>
		</g>
		<g>
			<g>
				<g>
					<path fill="#FFFFFF" d="M419.6,260.8h-17.3c-0.6-9.6-3.3-18.2-8.1-27.2c-1.4-2.3-4.1-3.2-5.9-2c-1.8,1.2-2.2,3.7-1,5.7
						c4.2,7.9,6.3,15.5,6.8,24c-1.3,0.9-2.2,3-2.2,5.4c0,3.3,1.7,5.9,3.8,5.9h24c2.1,0,3.8-2.7,3.8-5.9S421.7,260.8,419.6,260.8z"/>
				</g>
				<g>
					<path fill="none" stroke="#999999" stroke-width="1.0003" d="M419.6,260.8h-17.3c-0.6-9.6-3.3-18.2-8.1-27.2
						c-1.4-2.3-4.1-3.2-5.9-2c-1.8,1.2-2.2,3.7-1,5.7c4.2,7.9,6.3,15.5,6.8,24c-1.3,0.9-2.2,3-2.2,5.4c0,3.3,1.7,5.9,3.8,5.9h24
						c2.1,0,3.8-2.7,3.8-5.9S421.7,260.8,419.6,260.8z"/>
				</g>
			</g>
			<g>
				<g>
					<path fill="#FFFFFF" d="M436.3,286.9c-0.6-0.8-1.8-1-2.7-0.5c-2.6,1.3-5.1,2.3-7.7,3.2c-4.5-9.2-6.3-18.4-5.2-27.5h0.9
						c1.1,0,2.1-0.9,2.2-1.9c0-0.1,0-0.2,0-0.3s0-0.2,0-0.3c-0.2-1.1-1.1-1.9-2.2-1.9h-1.1c-0.7,0-1.2,0.3-1.6,0.7h-24.4
						c-0.7-7.8-3-15.6-7-23.4c0.1-0.4,0-0.9-0.2-1.2l-1-1.7c-0.4-0.8-1.4-1-2.2-0.6l-1.2,0.6c-0.9,0.4-1.2,1.5-0.7,2.3l1,1.7
						c0.3,0.6,1,0.9,1.7,0.8c8.8,17.7,8.8,35.1,0,52.8c-2.6-0.9-5.2-2-7.7-3.2c-1-0.5-2.2-0.3-2.7,0.5c-0.6,0.8-0.2,2,0.8,2.5
						c20,9.7,40.5,9.7,60.4,0C436.4,288.9,436.8,287.7,436.3,286.9z M414.7,261.4h3.1c-0.4,3.2-0.5,6.3-0.2,9.5h-2.9V261.4z
						 M409.2,261.4h3.9v9.5h-3.9V261.4z M403.8,261.4h3.9v9.5h-3.9V261.4z M398.3,261.4h3.9v9.5h-3.9V261.4z M394.5,261.4h2.3v9.5
						H394C394.4,267.7,394.6,264.5,394.5,261.4z M387.7,290.6c2.7-5.4,4.6-10.8,5.7-16.1l0,0h24.5h0.1c0.8,5.3,2.5,10.7,5.1,16
						C411.4,294.1,399.5,294.1,387.7,290.6z"/>
				</g>
				<g>
					<path fill="none" stroke="#999999" stroke-width="1.0003" d="M436.3,286.9c-0.6-0.8-1.8-1-2.7-0.5c-2.6,1.3-5.1,2.3-7.7,3.2
						c-4.5-9.2-6.3-18.4-5.2-27.5h0.9c1.1,0,2.1-0.9,2.2-1.9c0-0.1,0-0.2,0-0.3s0-0.2,0-0.3c-0.2-1.1-1.1-1.9-2.2-1.9h-1.1
						c-0.7,0-1.2,0.3-1.6,0.7h-24.4c-0.7-7.8-3-15.6-7-23.4c0.1-0.4,0-0.9-0.2-1.2l-1-1.7c-0.4-0.8-1.4-1-2.2-0.6l-1.2,0.6
						c-0.9,0.4-1.2,1.5-0.7,2.3l1,1.7c0.3,0.6,1,0.9,1.7,0.8c8.8,17.7,8.8,35.1,0,52.8c-2.6-0.9-5.2-2-7.7-3.2
						c-1-0.5-2.2-0.3-2.7,0.5c-0.6,0.8-0.2,2,0.8,2.5c20,9.7,40.5,9.7,60.4,0C436.4,288.9,436.8,287.7,436.3,286.9z M414.7,261.4
						h3.1c-0.4,3.2-0.5,6.3-0.2,9.5h-2.9V261.4z M409.2,261.4h3.9v9.5h-3.9V261.4z M403.8,261.4h3.9v9.5h-3.9V261.4z M398.3,261.4
						h3.9v9.5h-3.9V261.4z M394.5,261.4h2.3v9.5H394C394.4,267.7,394.6,264.5,394.5,261.4z M387.7,290.6c2.7-5.4,4.6-10.8,5.7-16.1
						l0,0h24.5h0.1c0.8,5.3,2.5,10.7,5.1,16C411.4,294.1,399.5,294.1,387.7,290.6z"/>
				</g>
			</g>
		</g>
	</g>
</g>
</svg>
